<?xml version="1.0" encoding="utf-8"?>
<!-- Generated by IcoMoon.io -->
<!DOCTYPE svg PUBLIC "-//W3C//DTD SVG 1.1//EN" "http://www.w3.org/Graphics/SVG/1.1/DTD/svg11.dtd">
<svg version="1.1" xmlns="http://www.w3.org/2000/svg" xmlns:xlink="http://www.w3.org/1999/xlink" width="32" height="32" viewBox="0 0 32 32">
<path fill="#444" d="M17.5 17.125q0 0.25-0.188 0.438l-8.313 8.313q-0.188 0.188-0.438 0.188-0.313 0-0.375-0.188l-0.938-0.875q-0.188-0.188-0.188-0.438 0-0.313 0.188-0.375l7.063-7.063-7.063-7q-0.188-0.188-0.188-0.438 0-0.188 0.188-0.375l0.938-0.875q0.063-0.188 0.375-0.188 0.25 0 0.438 0.188l8.313 8.313q0.188 0.188 0.188 0.375zM24.313 17.125q0 0.188-0.125 0.438l-8.375 8.313q-0.063 0.188-0.375 0.188-0.25 0-0.438-0.188l-0.875-0.875q-0.188-0.188-0.188-0.438 0-0.313 0.188-0.375l7-7.063-7-7q-0.188-0.188-0.188-0.438 0-0.188 0.188-0.375l0.875-0.875q0.188-0.188 0.438-0.188 0.313 0 0.375 0.188l8.375 8.313q0.125 0.25 0.125 0.375z"></path>
</svg>
