<?xml version="1.0" encoding="utf-8"?>
<!-- Generated by IcoMoon.io -->
<!DOCTYPE svg PUBLIC "-//W3C//DTD SVG 1.1//EN" "http://www.w3.org/Graphics/SVG/1.1/DTD/svg11.dtd">
<svg version="1.1" xmlns="http://www.w3.org/2000/svg" xmlns:xlink="http://www.w3.org/1999/xlink" width="32" height="32" viewBox="0 0 32 32">
<path fill="#444" d="M16.813 26.188q0-0.25-0.125-0.75 0-0.125-0.031-0.313t-0.094-0.313q-0.125-0.313-0.313-0.625-0.313-0.438-0.375-0.563l-1-1q-0.063 0-0.156-0.094l-0.188-0.188t-0.219-0.156q-0.375-0.313-0.563-0.375l-0.563-0.438q-0.438-0.25-0.563-0.375-0.063 0-0.375-0.031t-0.5-0.031q-0.688 0-1.938 0.125-1.375 0.313-1.875 0.5-1.063 0.313-1.75 0.813-0.813 0.5-1.25 1.313-0.5 0.875-0.5 1.938t0.625 2.125q0.688 1 1.688 1.5 1.188 0.688 2.125 0.813 1.25 0.313 2.313 0.313 1.188 0 2-0.25 0.813-0.188 1.75-0.688 0.813-0.438 1.375-1.313 0.5-0.875 0.5-1.938zM14.625 10.75q0-1.188-0.25-2.25-0.438-1.438-0.875-2.313-0.563-1.125-1.5-1.875t-2.125-0.75q-1.625 0-2.563 1.25-0.938 1.188-0.938 2.938 0 0.938 0.25 1.75 0.188 1.063 0.625 1.875 0.313 0.75 1 1.688 0.563 0.75 1.375 1.188t1.75 0.438q1.813 0 2.5-1.063 0.75-1 0.75-2.875zM12.313 2.313h7.813l-2.438 1.375h-2.375q1.313 0.938 1.938 2.25 0.688 1.563 0.688 3 0 1.313-0.375 2.375-0.5 1.125-1 1.625l-1.188 1.188q-0.563 0.375-1 1.063-0.438 0.5-0.438 1.25 0 0.375 0.313 0.875 0.188 0.313 0.75 0.875 0.313 0.25 1.063 0.875 0.188 0.125 0.375 0.281t0.406 0.344 0.344 0.313q0.438 0.438 1.063 1.188 0.5 0.688 0.75 1.563 0.313 0.938 0.313 1.875 0 2.813-2.5 5.063-2.688 2.313-7.5 2.313-1.063 0-2.125-0.188-1-0.188-2.188-0.563-1.25-0.5-1.938-1.063-0.813-0.625-1.375-1.563-0.563-1-0.563-2.188 0-1.063 0.688-2.438 0.563-1.063 1.688-1.938 1.125-0.813 2.625-1.313 1.875-0.5 2.75-0.625 0.938-0.125 2.688-0.25-1.125-1.5-1.125-2.625v-0.438q0.063-0.063 0.063-0.188t0.063-0.188l0.125-0.375q0.063-0.063 0.063-0.188t0.063-0.188q-1 0.125-1.25 0.125-2.625 0-4.563-1.75-1.938-1.813-1.938-4.438 0-2.5 1.75-4.438 1.75-2 4.125-2.563 1.375-0.313 3.375-0.313zM30.875 6.875v2.25h-4.563v4.563h-2.313v-4.563h-4.563v-2.25h4.563v-4.563h2.313v4.563h4.563z"></path>
</svg>
