<?xml version="1.0" encoding="utf-8"?>
<!-- Generated by IcoMoon.io -->
<!DOCTYPE svg PUBLIC "-//W3C//DTD SVG 1.1//EN" "http://www.w3.org/Graphics/SVG/1.1/DTD/svg11.dtd">
<svg version="1.1" xmlns="http://www.w3.org/2000/svg" xmlns:xlink="http://www.w3.org/1999/xlink" width="32" height="32" viewBox="0 0 32 32">
<path fill="#444" d="M29.375 30h-26.75q-0.688 0-0.688-0.688v-26.75q0-0.75 0.688-0.75h26.75q0.688 0 0.688 0.75v26.75q0 0.688-0.688 0.688zM3.313 28.625h25.375v-25.375h-25.375v25.375zM23.063 13.438q-0.688 0-0.688-0.688v-3.188h-3.188q-0.688 0-0.688-0.688 0-0.75 0.688-0.75h3.875q0.688 0 0.688 0.75v3.875q0 0.688-0.688 0.688zM8.938 13.438q-0.688 0-0.688-0.688v-3.875q0-0.75 0.688-0.75h3.875q0.688 0 0.688 0.75 0 0.688-0.688 0.688h-3.188v3.188q0 0.688-0.688 0.688zM12.813 23.688h-3.875q-0.688 0-0.688-0.688v-3.875q0-0.688 0.688-0.688t0.688 0.688v3.188h3.188q0.688 0 0.688 0.688t-0.688 0.688zM23.063 23.688h-3.875q-0.688 0-0.688-0.688t0.688-0.688h3.188v-3.188q0-0.688 0.688-0.688t0.688 0.688v3.875q0 0.688-0.688 0.688z"></path>
</svg>
