<?xml version="1.0" encoding="utf-8"?>
<!-- Generated by IcoMoon.io -->
<!DOCTYPE svg PUBLIC "-//W3C//DTD SVG 1.1//EN" "http://www.w3.org/Graphics/SVG/1.1/DTD/svg11.dtd">
<svg version="1.1" xmlns="http://www.w3.org/2000/svg" xmlns:xlink="http://www.w3.org/1999/xlink" width="32" height="32" viewBox="0 0 32 32">
<path fill="#444" d="M18.313 7.375q0 1.125-0.781 1.906t-1.844 0.781q-1.125 0-1.906-0.781t-0.781-1.906q0-1.063 0.781-1.844t1.906-0.781q1.063 0 1.844 0.781t0.781 1.844zM18.313 23.375q0 1.125-0.781 1.906t-1.844 0.781q-1.125 0-1.906-0.781t-0.781-1.906q0-1.063 0.781-1.844t1.906-0.781q1.063 0 1.844 0.781t0.781 1.844zM18.313 15.375q0 1.125-0.781 1.906t-1.844 0.781q-1.125 0-1.906-0.781t-0.781-1.906q0-1.063 0.781-1.844t1.906-0.781q1.063 0 1.844 0.781t0.781 1.844z"></path>
</svg>
