<?xml version="1.0" encoding="utf-8"?>
<!-- Generated by IcoMoon.io -->
<!DOCTYPE svg PUBLIC "-//W3C//DTD SVG 1.1//EN" "http://www.w3.org/Graphics/SVG/1.1/DTD/svg11.dtd">
<svg version="1.1" xmlns="http://www.w3.org/2000/svg" xmlns:xlink="http://www.w3.org/1999/xlink" width="32" height="32" viewBox="0 0 32 32">
<path fill="#444" d="M5.938 7.563q0 0.813-0.563 1.375t-1.375 0.563-1.375-0.563-0.563-1.375 0.563-1.406 1.375-0.594 1.375 0.594 0.563 1.406zM5.938 16q0 0.813-0.563 1.375t-1.375 0.563-1.375-0.563-0.563-1.375 0.563-1.375 1.375-0.563 1.375 0.563 0.563 1.375zM5.938 24.438q0 0.813-0.563 1.406t-1.375 0.594-1.375-0.594-0.563-1.406 0.563-1.375 1.375-0.563 1.375 0.563 0.563 1.375zM30.438 7.563q0 0.5-0.375 0.875t-0.875 0.375h-18.063q-0.5 0-0.875-0.375t-0.375-0.875 0.375-0.875 0.875-0.375h18.063q0.5 0 0.875 0.375t0.375 0.875zM30.438 16q0 0.5-0.375 0.875t-0.875 0.375h-18.063q-0.5 0-0.875-0.375t-0.375-0.875 0.375-0.875 0.875-0.375h18.063q0.5 0 0.875 0.375t0.375 0.875zM30.438 24.313q0 0.5-0.375 0.875t-0.875 0.375h-18.063q-0.5 0-0.875-0.375t-0.375-0.875q0-0.563 0.375-0.906t0.875-0.344h18.063q0.5-0.063 0.875 0.313t0.375 0.938z"></path>
</svg>
