<?xml version="1.0" encoding="utf-8"?>
<!-- Generated by IcoMoon.io -->
<!DOCTYPE svg PUBLIC "-//W3C//DTD SVG 1.1//EN" "http://www.w3.org/Graphics/SVG/1.1/DTD/svg11.dtd">
<svg version="1.1" xmlns="http://www.w3.org/2000/svg" xmlns:xlink="http://www.w3.org/1999/xlink" width="32" height="32" viewBox="0 0 32 32">
<path fill="#444" d="M10.313 24q0 1.313-1 2.438-1 1-2.438 1t-2.438-1-1-2.438 1-2.438 2.438-1 2.438 1q1 1.125 1 2.438zM19.438 26.188q0 0.563-0.313 0.875-0.25 0.375-0.813 0.375h-2.438q-0.438 0-0.75-0.313-0.375-0.25-0.375-0.75-0.375-4.063-3.313-7-2.875-2.875-7-3.25-0.438-0.125-0.688-0.375-0.313-0.25-0.313-0.75v-2.438q0-0.563 0.375-0.813 0.25-0.313 0.75-0.313h0.125q2.75 0.188 5.438 1.438 2.563 1.188 4.625 3.25 2 1.875 3.25 4.625 1.125 2.438 1.438 5.438zM28.563 26.25q0.063 0.438-0.313 0.813-0.25 0.375-0.813 0.375h-2.563q-0.375 0-0.813-0.313-0.313-0.313-0.313-0.75-0.313-4-1.813-7.313-1.563-3.438-4.125-6t-6-4.125q-3.563-1.625-7.313-1.813-0.5 0-0.75-0.375-0.313-0.313-0.313-0.75v-2.563q0-0.563 0.375-0.813 0.25-0.313 0.75-0.313h0.063q4.813 0.188 8.938 2.125 4.188 1.813 7.625 5.25 3.25 3.25 5.25 7.563 1.938 4.5 2.125 9z"></path>
</svg>
