<?xml version="1.0" encoding="utf-8"?>
<!-- Generated by IcoMoon.io -->
<!DOCTYPE svg PUBLIC "-//W3C//DTD SVG 1.1//EN" "http://www.w3.org/Graphics/SVG/1.1/DTD/svg11.dtd">
<svg version="1.1" xmlns="http://www.w3.org/2000/svg" xmlns:xlink="http://www.w3.org/1999/xlink" width="32" height="32" viewBox="0 0 32 32">
<path fill="#444" d="M3.688 2.313v13.25q-0.75-0.563-1.125-0.188-0.125 0.25-0.125 0.344t0.188 0.375 0.188 0.344q2.375 2.375 5.625 3.813-0.688 2-0.5 4.375 0.25 2.063 1.563 3.563t3.25 1.5q1.063 0 1.906-0.656t0.844-1.656v-5.75q0.125 0 0.5 0.125t0.5 0.188v5.375q0 0.563 0.25 1 0.938 1.313 2.5 1.313 2.063-0.063 3.281-1.531t1.531-3.531q0.188-2.313-0.5-4.438 0.125-0.063 0.781-0.375t0.906-0.438 0.875-0.469 0.938-0.563 0.813-0.563 0.781-0.656 0.531-0.719 0.375-0.781q0-0.375-0.438-0.375t-0.875 0.313v-13.188h-24.563zM5.125 3.75h21.625v12.625q-0.125 0.063-1.063 0.563l-19.125 0.188q-0.25-0.125-0.719-0.344t-0.719-0.344v-12.688zM12.313 10.438q-1.375 0-2.313 0.938t-0.938 2.313q0 1.313 0.938 2.281t2.313 0.969q1.313 0 2.25-0.969t0.938-2.281q0-1.375-0.938-2.313t-2.25-0.938zM19.938 10.438q-1.313 0-2.281 0.938t-0.969 2.313q0 1.313 0.969 2.281t2.281 0.969q1.375 0 2.313-0.969t0.938-2.281q0-1.375-0.938-2.313t-2.313-0.938z"></path>
</svg>
