<?xml version="1.0" encoding="utf-8"?>
<!-- Generated by IcoMoon.io -->
<!DOCTYPE svg PUBLIC "-//W3C//DTD SVG 1.1//EN" "http://www.w3.org/Graphics/SVG/1.1/DTD/svg11.dtd">
<svg version="1.1" xmlns="http://www.w3.org/2000/svg" xmlns:xlink="http://www.w3.org/1999/xlink" width="32" height="32" viewBox="0 0 32 32">
<path fill="#444" d="M19.875 17.375q0.313 0 1.75 0.813 1.438 0.75 1.563 0.938 0.063 0.063 0.063 0.25 0 0.563-0.313 1.375-0.313 0.688-1.25 1.188-0.938 0.438-1.813 0.438-0.938 0-3.438-1.063-1.75-0.875-3-2.125t-2.625-3.313q-1.313-1.875-1.313-3.438v-0.188q0.125-1.625 1.313-2.813 0.438-0.375 0.938-0.375h0.313q0.188 0.063 0.375 0.063 0.375 0 0.438 0.125 0.125 0.063 0.313 0.438 0 0.125 0.219 0.656t0.344 0.969q0.438 1.125 0.438 1.313 0 0.375-0.563 1-0.625 0.625-0.625 0.875 0 0.125 0.063 0.25 0.688 1.438 1.813 2.438 1.125 1.063 2.688 1.813 0.375 0.125 0.438 0.125 0.25 0 0.938-0.875 0.75-0.875 0.938-0.875zM16.25 26.875q2.25 0 4.375-0.938 2-0.813 3.563-2.375t2.375-3.563q0.875-1.938 0.875-4.375 0-2.375-0.875-4.313-0.875-2.125-2.375-3.625-1.375-1.375-3.563-2.375-2.25-0.875-4.375-0.875t-4.375 0.875q-2.188 1-3.563 2.375-1.5 1.5-2.375 3.625-0.875 1.938-0.875 4.313 0 3.688 2.125 6.563l-1.438 4.188 4.313-1.375q2.938 1.875 6.188 1.875zM16.25 2.188q2.625 0 5.25 1.063 2.375 1 4.25 2.875 1.813 1.75 2.875 4.313 1.063 2.313 1.063 5.188t-1.063 5.25q-1.063 2.5-2.875 4.313-1.688 1.688-4.25 2.875-2.625 1.063-5.25 1.063-3.5 0-6.5-1.688l-7.438 2.375 2.375-7.25q-1.875-3.063-1.875-6.938 0-2.875 1.063-5.188 1.063-2.563 2.875-4.313 1.875-1.875 4.25-2.875 2.625-1.063 5.25-1.063z"></path>
</svg>
