<?xml version="1.0" encoding="utf-8"?>
<!-- Generator: Adobe Illustrator 21.0.2, SVG Export Plug-In . SVG Version: 6.00 Build 0)  -->
<svg version="1.1" id="Livello_1" xmlns="http://www.w3.org/2000/svg" xmlns:xlink="http://www.w3.org/1999/xlink" x="0px" y="0px"
	 viewBox="0 0 400 200" style="enable-background:new 0 0 400 200;" xml:space="preserve">
<style type="text/css">
	.st0{fill:#0066CC;}
	.st1{fill:#FFFFFF;}
	.st2{fill:#013366;}
	.st3{fill:#022D4F;}
	.st4{fill:#D7DCE0;}
	.st5{fill:#2F978B;}
	.st6{opacity:0.15;}
	.st7{opacity:0.4;}
	.st8{fill:none;}
	.st9{opacity:0.2;}
	.st10{fill:#EFCAA6;}
	.st11{fill:#FEFFFF;}
</style>
<g id="XMLID_1_">
	<rect y="0.7" class="st0" width="399.9" height="199.3"/>
</g>
<g id="XMLID_9_">
	<g>
		<g id="XMLID_75_">
			<path class="st1" d="M45.1,65.3V27h10.3v38.4L45.1,65.3L45.1,65.3z M85.6,35.7h-9.4v15.8c0,1.6,0.1,2.6,0.1,3.3
				c0.1,0.6,0.3,1.2,0.8,1.6c0.5,0.5,1.2,0.7,2.3,0.7l5.9-0.1l0.5,8.2c-3.4,0.8-6.1,1.2-7.8,1.2c-4.6,0-7.8-1-9.4-3.1
				c-1.7-2-2.5-5.9-2.5-11.5V16.3h10.3v10.6h9.4L85.6,35.7L85.6,35.7z M29.7,38.7c-1.8,0-3.3-0.6-4.4-1.8c-1.2-1.2-1.8-2.7-1.8-4.5
				c0-1.8,0.6-3.3,1.7-4.5c1.2-1.2,2.7-1.8,4.4-1.8s3.3,0.6,4.4,1.8c1.2,1.2,1.7,2.7,1.7,4.6c0,1.8-0.5,3.3-1.7,4.5
				C32.9,38,31.5,38.7,29.7,38.7z"/>
		</g>
	</g>
</g>
<g id="XMLID_2_">
	<g id="XMLID_30_">
		<g id="XMLID_26_">
			<path class="st2" d="M83.5,160.7V99.2c0-2.8,2.3-5.1,5.1-5.1h104.3c2.8,0,5.1,2.3,5.1,5.1v61.5c0,2.8-2.3,5.1-5.1,5.1H88.6
				C85.8,165.8,83.5,163.5,83.5,160.7z"/>
		</g>
		<g id="XMLID_25_">
			
				<rect x="111.1" y="74.6" transform="matrix(6.623928e-11 1 -1 6.623928e-11 267.7211 -13.782)" class="st1" width="59.3" height="104.7"/>
		</g>
		<g id="XMLID_24_">
			<rect x="122.4" y="165.8" class="st3" width="36.7" height="4.4"/>
		</g>
		<g id="XMLID_28_">
			<polygon class="st2" points="169.7,178.4 111.8,178.4 121.9,170.2 158.6,170.2 			"/>
		</g>
	</g>
	<g id="XMLID_31_">
		<rect x="94.2" y="102.3" class="st4" width="88.7" height="3.6"/>
	</g>
	<g id="XMLID_32_">
		<path class="st4" d="M114.5,135.9H93.8v-26.1h20.7V135.9z M94.6,135.1h19v-24.4h-19V135.1z"/>
	</g>
	<g id="XMLID_48_">
		
			<rect x="88.1" y="122.8" transform="matrix(0.6093 -0.7929 0.7929 0.6093 -57.1918 130.324)" class="st4" width="31.1" height="0.9"/>
	</g>
	<g id="XMLID_47_">
		
			<rect x="103.7" y="107.3" transform="matrix(0.7817 -0.6237 0.6237 0.7817 -53.9069 91.765)" class="st4" width="0.8" height="31.1"/>
	</g>
	<g id="XMLID_62_">
		<path class="st4" d="M162.2,142.3h-20.7v-14.4h20.7V142.3z M142.3,141.4h19v-12.7h-19V141.4z"/>
	</g>
	<g id="XMLID_61_">
		
			<rect x="139.8" y="134.8" transform="matrix(0.8206 -0.5715 0.5715 0.8206 -50.1429 110.7785)" class="st4" width="23.1" height="0.8"/>
	</g>
	<g id="XMLID_60_">
		
			<rect x="151.4" y="123.4" transform="matrix(0.557 -0.8305 0.8305 0.557 -44.9265 185.9471)" class="st4" width="0.8" height="23.3"/>
	</g>
	<g id="XMLID_52_">
		<path class="st4" d="M139,135.9h-20.7v-26.1H139V135.9z M119.1,135.1h19v-24.4h-19V135.1z"/>
	</g>
	<g id="XMLID_51_">
		
			<rect x="112.6" y="122.8" transform="matrix(0.6093 -0.7929 0.7929 0.6093 -47.6168 149.7579)" class="st4" width="31.1" height="0.9"/>
	</g>
	<g id="XMLID_50_">
		
			<rect x="128.2" y="107.3" transform="matrix(0.7817 -0.6237 0.6237 0.7817 -48.5557 107.0534)" class="st4" width="0.8" height="31.1"/>
	</g>
	<g id="XMLID_49_">
		<rect x="94.2" y="138.4" class="st4" width="19.6" height="2.6"/>
	</g>
	<g id="XMLID_57_">
		<rect x="94.2" y="144.1" class="st4" width="19.6" height="2.6"/>
	</g>
	<g id="XMLID_58_">
		<rect x="94.2" y="150" class="st4" width="19.6" height="2.6"/>
	</g>
	<g id="XMLID_54_">
		<rect x="141.9" y="109.6" class="st4" width="41" height="2.6"/>
	</g>
	<g id="XMLID_55_">
		<rect x="141.9" y="113.9" class="st4" width="41" height="2.6"/>
	</g>
	<g id="XMLID_56_">
		<rect x="141.9" y="121.9" class="st4" width="19.6" height="2.6"/>
	</g>
	<g id="XMLID_59_">
		<rect x="118.8" y="138.4" class="st4" width="19.6" height="2.6"/>
	</g>
</g>
<g id="XMLID_71_">
	<g id="XMLID_29_">
		<g id="XMLID_19_">
			<path class="st2" d="M204.3,179.1h-20c-2.8,0-5.1-2.3-5.1-5.1v-43.9c0-2.8,2.3-5.1,5.1-5.1h20c2.8,0,5.1,2.3,5.1,5.1V174
				C209.4,176.8,207.1,179.1,204.3,179.1z"/>
		</g>
		<g id="XMLID_20_">
			<rect x="182.2" y="130.4" class="st1" width="24.2" height="40.1"/>
		</g>
		<g id="XMLID_21_">
			<rect x="192.1" y="172.7" class="st1" width="4.5" height="3.6"/>
		</g>
	</g>
	<g id="XMLID_67_">
		<rect x="183.4" y="133.4" class="st4" width="21.6" height="2.6"/>
	</g>
	<g id="XMLID_68_">
		<rect x="183.6" y="139.8" class="st4" width="21.6" height="2.6"/>
	</g>
	<g id="XMLID_69_">
		<rect x="183.6" y="145.6" class="st4" width="21.6" height="2.6"/>
	</g>
	<g id="XMLID_70_">
		<rect x="189.4" y="152.1" class="st4" width="9.9" height="9.9"/>
	</g>
</g>
<g id="XMLID_3_">
	<g id="XMLID_6_">
		<g id="XMLID_22_">
			<path class="st2" d="M92,178.8H48.1c-2.8,0-5.1-2.3-5.1-5.1v-56.8c0-2.8,2.3-5.1,5.1-5.1H92c2.8,0,5.1,2.3,5.1,5.1v56.8
				C97.1,176.5,94.8,178.8,92,178.8z"/>
		</g>
		<g id="XMLID_23_">
			<rect x="48.5" y="118.7" class="st5" width="43" height="51.5"/>
		</g>
		<g id="XMLID_27_">
			<circle class="st1" cx="70" cy="174.2" r="1.9"/>
		</g>
	</g>
	<g id="XMLID_53_">
		<rect x="54.5" y="127.9" class="st1" width="30.4" height="12.8"/>
	</g>
	<g id="XMLID_63_">
		<rect x="51.3" y="150.1" class="st1" width="9.9" height="9.9"/>
	</g>
	<g id="XMLID_65_">
		<rect x="64.8" y="150.1" class="st1" width="9.9" height="9.9"/>
	</g>
	<g id="XMLID_66_">
		<rect x="78.2" y="150.1" class="st1" width="9.9" height="9.9"/>
	</g>
</g>
<g id="XMLID_170_" class="st6">
	<g id="XMLID_39_">
		<path class="st1" d="M310.2,91.7c-10.7,0-19.4-8.7-19.4-19.4c0-10.7,8.7-19.4,19.4-19.4c10.7,0,19.4,8.7,19.4,19.4
			C329.7,83,321,91.7,310.2,91.7z M310.2,55.7c-9.2,0-16.6,7.5-16.6,16.6c0,9.2,7.5,16.6,16.6,16.6c9.2,0,16.6-7.5,16.6-16.6
			C326.9,63.1,319.4,55.7,310.2,55.7z"/>
	</g>
</g>
<g id="XMLID_325_" class="st6">
	<g id="XMLID_33_">
		<path class="st1" d="M310.2,138.6c-36.6,0-66.3-29.7-66.3-66.3C244,35.8,273.7,6,310.2,6s66.3,29.7,66.3,66.3
			C376.5,108.9,346.8,138.6,310.2,138.6z M310.2,9.8c-34.5,0-62.5,28.1-62.5,62.5s28.1,62.5,62.5,62.5s62.5-28.1,62.5-62.5
			S344.7,9.8,310.2,9.8z"/>
	</g>
</g>
<g class="st6">
	<g>
		<path class="st1" d="M310.2,112.1c21.9,0,39.8-17.8,39.8-39.8s-17.8-39.8-39.8-39.8c-21.9,0-39.8,17.8-39.8,39.8
			S288.3,112.1,310.2,112.1z M310.2,36.3c19.9,0,36,16.2,36,36s-16.2,36-36,36c-19.9,0-36-16.2-36-36S290.4,36.3,310.2,36.3z"/>
	</g>
	<g class="st7">
		<path class="st1" d="M220.5,72.3c0,49.5,40.3,89.8,89.8,89.8c44.9,0,82.3-33.2,88.8-76.4V58.9c-3.5-23.5-16.2-44.1-34.3-57.9h-6.4
			c22.9,15.5,38,41.7,38,71.3c0,47.4-38.6,86-86,86c-47.4,0-86-38.6-86-86c0-29.7,15.1-55.9,38-71.3h-6.4
			C234.4,17.4,220.5,43.3,220.5,72.3z"/>
	</g>
	<g class="st7">
		<path class="st8" d="M310.2,108.4c19.9,0,36-16.2,36-36s-16.2-36-36-36c-19.9,0-36,16.2-36,36S290.4,108.4,310.2,108.4z"/>
	</g>
	<g>
		<path class="st8" d="M399,58.9V1h-34.3C382.8,14.8,395.5,35.4,399,58.9z"/>
	</g>
	<g class="st9">
		<path class="st8" d="M224.2,72.3c0,47.4,38.6,86,86,86c47.4,0,86-38.6,86-86c0-29.7-15.1-55.9-38-71.3h-96
			C239.3,16.5,224.2,42.7,224.2,72.3z M310.2,32.5c21.9,0,39.8,17.8,39.8,39.8s-17.8,39.8-39.8,39.8c-21.9,0-39.8-17.8-39.8-39.8
			S288.3,32.5,310.2,32.5z"/>
	</g>
	<g>
		<path class="st8" d="M310.2,162.1c-49.5,0-89.8-40.3-89.8-89.8c0-29,13.9-54.9,35.3-71.3h-62.2v198H399V85.7
			C392.5,128.9,355.2,162.1,310.2,162.1z"/>
	</g>
</g>
<g>
	<g>
		<path class="st10" d="M310.7,131.7h-0.3c-2.1,0-3.9-1.7-3.9-3.9V77.4c0-2.1,1.7-3.9,3.9-3.9h0.3c2.1,0,3.9,1.7,3.9,3.9v50.5
			C314.5,130,312.8,131.7,310.7,131.7z"/>
		<path class="st10" d="M318.5,144.3l-0.1,0.1c-2,1.4-4.7,0.9-6.2-1l-24.6-34.4c-1.4-2-0.9-4.7,1-6.2l0.1-0.1c2-1.4,4.7-0.9,6.2,1
			l24.6,34.4C320.9,140.1,320.4,142.9,318.5,144.3z"/>
		<path class="st10" d="M340.1,142.7L340.1,142.7c-2.2,0-3.9-1.8-3.9-3.9v-34.8c0-2.2,1.8-3.9,3.9-3.9h0.8c2.2,0,3.9,1.8,3.9,3.9v34
			C344.8,140.5,342.7,142.7,340.1,142.7z"/>
		<path class="st10" d="M330.8,142.4h-0.8c-2.2,0-3.9-1.8-3.9-3.9v-34.8c0-2.2,1.8-3.9,3.9-3.9h0.8c2.2,0,3.9,1.8,3.9,3.9v34.8
			C334.7,140.6,332.9,142.4,330.8,142.4z"/>
		<path class="st10" d="M321,141.5h-0.8c-2.2,0-3.9-1.8-3.9-3.9v-34.8c0-2.2,1.8-3.9,3.9-3.9h0.8c2.2,0,3.9,1.8,3.9,3.9v34.8
			C324.9,139.7,323.1,141.5,321,141.5z"/>
		<path class="st10" d="M312.7,141h23.1c3.8,0,6.9-3.1,6.9-6.9v-29.6h-30V141z"/>
		<rect x="314.5" y="140.7" class="st10" width="25.3" height="6.5"/>
	</g>
	<rect x="313" y="147.3" class="st11" width="29.2" height="4.6"/>
	<rect x="311.2" y="151.9" class="st5" width="32.8" height="47.2"/>
</g>
<g>
	<g>
		<path class="st1" d="M138.9,34.4v31.7h-3.3v-1.5c-2.3,1.3-4.5,1.9-6.7,1.9c-1.2,0-2.2-0.1-3.1-0.4c-0.9-0.3-1.7-0.8-2.5-1.6
			c-1.6-1.6-2.4-4.5-2.4-8.8c0-4.3,0.7-7.4,2.1-9.3s3.8-2.8,7.1-2.8c1.7,0,3.5,0.2,5.4,0.6v-9.8H138.9z M127.4,63.3
			c0.5,0.2,1.2,0.3,2.1,0.3s1.8-0.1,2.8-0.4c1-0.3,1.9-0.6,2.5-0.8l0.9-0.4V47c-1.9-0.4-3.6-0.5-5.3-0.5c-2.2,0-3.8,0.7-4.7,2.1
			c-0.9,1.4-1.3,3.6-1.3,6.6c0,3.4,0.5,5.7,1.5,6.9C126.3,62.7,126.8,63.1,127.4,63.3z"/>
		<path class="st1" d="M160.3,63.4l1.3-0.1l0.1,2.6c-3.4,0.5-6.2,0.7-8.6,0.7c-3.2,0-5.4-0.9-6.8-2.8c-1.3-1.8-2-4.7-2-8.6
			c0-7.7,3.1-11.6,9.2-11.6c3,0,5.2,0.8,6.7,2.5c1.5,1.7,2.2,4.3,2.2,7.8l-0.2,2.5h-14.6c0,2.4,0.4,4.3,1.3,5.4
			c0.9,1.2,2.4,1.8,4.6,1.8C155.8,63.6,158,63.6,160.3,63.4z M159.1,53.8c0-2.7-0.4-4.6-1.3-5.7c-0.9-1.1-2.3-1.7-4.2-1.7
			c-2,0-3.4,0.6-4.4,1.8c-1,1.2-1.5,3.1-1.5,5.7H159.1z"/>
		<path class="st1" d="M174.5,46.6c-3.2,0-4.8,1.1-4.8,3.4c0,1,0.4,1.8,1.1,2.2c0.7,0.4,2.4,0.9,5,1.3c2.6,0.5,4.5,1.1,5.6,1.9
			c1.1,0.8,1.6,2.4,1.6,4.6c0,2.3-0.7,3.9-2.2,5c-1.5,1.1-3.6,1.6-6.4,1.6c-1.8,0-4-0.2-6.4-0.6l-1.3-0.2l0.2-2.9
			c3.4,0.5,5.9,0.8,7.6,0.8c1.7,0,3-0.3,3.9-0.8c0.9-0.5,1.3-1.5,1.3-2.7c0-1.3-0.4-2.1-1.1-2.6c-0.8-0.5-2.4-0.9-5-1.3
			c-2.6-0.4-4.4-1-5.5-1.8c-1.1-0.8-1.6-2.3-1.6-4.4c0-2.1,0.8-3.7,2.3-4.8c1.5-1,3.4-1.5,5.7-1.5c1.8,0,4,0.2,6.8,0.6l1.2,0.2
			l-0.1,2.8C179,46.8,176.4,46.6,174.5,46.6z"/>
		<path class="st1" d="M188.1,39v-3.8h3.3V39H188.1z M188.1,66.1V44h3.3v22.1H188.1z"/>
		<path class="st1" d="M206.3,76.5c-3.5,0-6-0.5-7.4-1.4c-1.4-1-2.1-2.7-2.1-5.2c0-1.2,0.3-2.2,0.8-2.9c0.5-0.8,1.4-1.6,2.7-2.5
			c-0.8-0.6-1.2-1.6-1.2-3c0-0.5,0.4-1.4,1.1-2.8l0.4-0.7c-2.3-1.1-3.5-3.3-3.5-6.7c0-5,2.8-7.6,8.3-7.6c1.4,0,2.7,0.1,3.9,0.4
			l0.7,0.1l6.5-0.2v2.8l-4.2-0.1c1,1,1.5,2.4,1.5,4.4c0,2.8-0.7,4.7-2.1,5.8c-1.4,1.1-3.5,1.7-6.5,1.7c-0.8,0-1.5-0.1-2.2-0.2
			c-0.5,1.3-0.8,2.1-0.8,2.5c0,0.9,0.3,1.5,0.8,1.7c0.6,0.2,2.3,0.3,5.1,0.3s4.9,0.4,6.1,1.3c1.2,0.9,1.9,2.6,1.9,5.2
			C216.1,74.2,212.8,76.5,206.3,76.5z M200.1,69.6c0,1.6,0.4,2.6,1.3,3.2c0.9,0.6,2.5,0.9,4.8,0.9c2.3,0,4-0.3,5-1
			c1-0.6,1.5-1.7,1.5-3.2s-0.4-2.5-1.1-2.9c-0.7-0.4-2.2-0.7-4.3-0.7l-4.8-0.2c-1,0.7-1.6,1.3-2,1.9
			C200.2,68.1,200.1,68.7,200.1,69.6z M200.4,51.1c0,1.7,0.4,3,1.2,3.7c0.8,0.7,2.1,1.1,3.9,1.1c1.8,0,3.1-0.4,3.8-1.1
			c0.8-0.7,1.1-2,1.1-3.7c0-1.8-0.4-3-1.1-3.7c-0.8-0.7-2-1.1-3.8-1.1c-1.8,0-3.1,0.4-3.9,1.1C200.8,48.2,200.4,49.4,200.4,51.1z"/>
		<path class="st1" d="M223.8,66.1h-3.3V44h3.3v1.5c2.4-1.3,4.7-2,6.8-2c2.9,0,4.9,0.8,5.9,2.4c1,1.6,1.5,4.4,1.5,8.5v11.7h-3.3
			V54.5c0-3.1-0.3-5.2-0.9-6.3c-0.6-1.1-1.9-1.7-3.9-1.7c-0.9,0-1.9,0.1-3,0.4c-1,0.3-1.8,0.6-2.4,0.8l-0.8,0.4V66.1z"/>
		<path class="st1" d="M244,66.1v-5h3.6v5H244z"/>
		<path class="st1" d="M253.7,39v-3.8h3.3V39H253.7z M253.7,66.1V44h3.3v22.1H253.7z"/>
		<path class="st1" d="M274.9,46.9h-7v10.6c0,2.5,0.2,4.2,0.6,5c0.4,0.8,1.2,1.2,2.6,1.2l3.9-0.3l0.2,2.7c-2,0.3-3.5,0.5-4.5,0.5
			c-2.3,0-3.9-0.6-4.8-1.7c-0.9-1.1-1.3-3.3-1.3-6.4V46.9h-3.1V44h3.1v-6.8h3.3V44h7V46.9z"/>
		<path class="st1" d="M294.5,50.7V62c0.1,1.1,0.9,1.7,2.6,1.9l-0.1,2.6c-2.3,0-4.1-0.6-5.3-1.8c-2.6,1.2-5.3,1.8-8,1.8
			c-2,0-3.6-0.6-4.6-1.7c-1.1-1.1-1.6-2.8-1.6-4.9c0-2.1,0.5-3.7,1.6-4.7c1.1-1,2.8-1.6,5.1-1.9l6.9-0.7v-1.9c0-1.5-0.3-2.6-1-3.2
			c-0.6-0.6-1.5-1-2.6-1c-2.4,0-4.8,0.1-7.3,0.4l-1.4,0.1l-0.1-2.5c3.2-0.6,6.1-1,8.6-1c2.5,0,4.3,0.6,5.5,1.7
			S294.5,48.3,294.5,50.7z M280.9,59.7c0,2.7,1.1,4.1,3.4,4.1c2,0,4-0.3,5.9-1l1-0.4v-7.3l-6.5,0.6c-1.3,0.1-2.3,0.5-2.9,1.1
			S280.9,58.5,280.9,59.7z"/>
		<path class="st1" d="M301.3,66.1V34.4h3.3v31.7H301.3z"/>
		<path class="st1" d="M311.3,39v-3.8h3.3V39H311.3z M311.3,66.1V44h3.3v22.1H311.3z"/>
		<path class="st1" d="M336.5,50.7V62c0.1,1.1,0.9,1.7,2.6,1.9l-0.1,2.6c-2.3,0-4.1-0.6-5.3-1.8c-2.6,1.2-5.3,1.8-8,1.8
			c-2,0-3.6-0.6-4.6-1.7c-1.1-1.1-1.6-2.8-1.6-4.9c0-2.1,0.5-3.7,1.6-4.7c1.1-1,2.8-1.6,5.1-1.9l6.9-0.7v-1.9c0-1.5-0.3-2.6-1-3.2
			c-0.6-0.6-1.5-1-2.6-1c-2.4,0-4.8,0.1-7.3,0.4l-1.4,0.1l-0.1-2.5c3.2-0.6,6.1-1,8.6-1c2.5,0,4.3,0.6,5.5,1.7
			S336.5,48.3,336.5,50.7z M322.9,59.7c0,2.7,1.1,4.1,3.4,4.1c2,0,4-0.3,5.9-1l1-0.4v-7.3l-6.5,0.6c-1.3,0.1-2.3,0.5-2.9,1.1
			S322.9,58.5,322.9,59.7z"/>
		<path class="st1" d="M342.8,66.1v-5h3.6v5H342.8z"/>
		<path class="st1" d="M352.6,39v-3.8h3.3V39H352.6z M352.6,66.1V44h3.3v22.1H352.6z"/>
		<path class="st1" d="M373.7,46.9h-7v10.6c0,2.5,0.2,4.2,0.6,5c0.4,0.8,1.2,1.2,2.6,1.2l3.9-0.3l0.2,2.7c-2,0.3-3.5,0.5-4.5,0.5
			c-2.3,0-3.9-0.6-4.8-1.7c-0.9-1.1-1.3-3.3-1.3-6.4V46.9h-3.1V44h3.1v-6.8h3.3V44h7V46.9z"/>
	</g>
</g>
</svg>
