<?xml version="1.0" standalone="no"?>
<!DOCTYPE svg PUBLIC "-//W3C//DTD SVG 1.1//EN" "http://www.w3.org/Graphics/SVG/1.1/DTD/svg11.dtd" >
<svg xmlns="http://www.w3.org/2000/svg">
<metadata>Generated by IcoMoon</metadata>
<defs>
<font id="icomoon" horiz-adv-x="1024">
<font-face units-per-em="1024" ascent="960" descent="-64" />
<missing-glyph horiz-adv-x="1024" />
<glyph unicode="&#x20;" d="" />
<glyph unicode="&#x41;" glyph-name="icon-close-02" d="M974 794l-116 116-346-348-346 348-116-116 348-346-348-346 116-116 346 348 346-348 116 116-348 346z" />
<glyph unicode="&#x42;" glyph-name="icon-radio-off" d="M512 902q-186 0-319-133t-133-321 133-321 319-133q188 0 321 133t133 321-133 321-321 133zM512 108q-140 0-240 100t-100 240 100 240 240 100 240-100 100-240-100-240-240-100z" />
<glyph unicode="&#x43;" glyph-name="icon-radio-on" d="M512 902q-186 0-319-133t-133-321 133-321 319-133q188 0 321 133t133 321-133 321-321 133zM512 108q-140 0-240 100t-100 240 100 240 240 100 240-100 100-240-100-240-240-100zM512 674q-92 0-159-67t-67-159q0-94 66-160t160-66 161 66 67 160-67 160-161 66z" />
<glyph unicode="&#x44;" glyph-name="icon-document" d="M918 798h-108v100q0 10-7 17t-17 7h-680q-10 0-17-7t-7-17v-778q0-22 24-22h108v-100q0-10 7-17t17-7h680q10 0 17 7t7 17v778q0 22-24 22zM130 874h632v-730h-632v730zM894 22h-632v76h524q24 0 24 22v632h84v-730zM680 488h-470q-24 0-24 26t24 26h470q24 0 24-26t-24-26zM680 636h-470q-24 0-24 26t24 26h470q24 0 24-26t-24-26zM680 340h-470q-24 0-24 26t24 26h470q24 0 24-26t-24-26z" />
<glyph unicode="&#x45;" glyph-name="icon-link" d="M1016 938q-2 12-14 14-2 2-8 2h-482q-26 0-26-24 0-26 26-26h420l-570-570q-18-18 0-36 10-6 18-6 12 0 18 6l570 570v-422q0-26 26-26 24 0 24 26v484q0 6-2 8zM736 342q-26 0-26-26 0-136-97-233t-233-97-233 97-97 233 97 233 233 97q26 0 26 26t-26 26q-158 0-269-112t-111-270 111-269 269-111 270 111 112 269q0 26-26 26z" />
<glyph unicode="&#x46;" glyph-name="whatsapp" d="M636 404q10 0 56-26 46-24 50-30 2-2 2-8 0-18-10-44-10-22-40-38-30-14-58-14-30 0-110 34-56 28-96 68t-84 106q-42 60-42 110v6q4 52 42 90 14 12 30 12h10q6-2 12-2 12 0 14-4 4-2 10-14 0-4 7-21t11-31q14-36 14-42 0-12-18-32-20-20-20-28 0-4 2-8 22-46 58-78 36-34 86-58 12-4 14-4 8 0 30 28 24 28 30 28zM520 100q72 0 140 30 64 26 114 76t76 114q28 62 28 140 0 76-28 138-28 68-76 116-44 44-114 76-72 28-140 28t-140-28q-70-32-114-76-48-48-76-116-28-62-28-138 0-118 68-210l-46-134 138 44q94-60 198-60zM520 890q84 0 168-34 76-32 136-92 58-56 92-138 34-74 34-166t-34-168q-34-80-92-138-54-54-136-92-84-34-168-34-112 0-208 54l-238-76 76 232q-60 98-60 222 0 92 34 166 34 82 92 138 60 60 136 92 84 34 168 34z" />
<glyph unicode="&#x47;" glyph-name="icon-pdf2" d="M918 798h-108v100q0 10-7 17t-17 7h-680q-10 0-17-7t-7-17v-778q0-22 24-22h108v-100q0-10 7-17t17-7h680q10 0 17 7t7 17v778q0 22-24 22zM130 874h632v-730h-632v730zM894 22h-632v76h524q24 0 24 22v632h84v-730z" />
<glyph unicode="&#x48;" glyph-name="angle-double-left" d="M578 174q0-8-6-14l-28-28q-6-6-14-6-10 0-12 6l-268 266q-4 8-4 14 0 4 4 12l268 266q2 6 12 6 8 0 14-6l28-28q6-6 6-12 0-8-6-14l-224-224 224-226q6-2 6-12zM798 174q0-8-6-14l-30-28q-2-6-12-6-8 0-14 6l-266 266q-6 6-6 14 0 6 6 12l266 266q6 6 14 6 10 0 12-6l30-28q6-6 6-12 0-8-6-14l-226-224 226-226q6-2 6-12z" />
<glyph unicode="&#x49;" glyph-name="angle-double-right" d="M560 412q0-8-6-14l-266-266q-6-6-14-6-10 0-12 6l-30 28q-6 6-6 14 0 10 6 12l226 226-226 224q-6 6-6 14 0 6 6 12l30 28q2 6 12 6 8 0 14-6l266-266q6-6 6-12zM778 412q0-6-4-14l-268-266q-2-6-12-6-8 0-14 6l-28 28q-6 6-6 14 0 10 6 12l224 226-224 224q-6 6-6 14 0 6 6 12l28 28q6 6 14 6 10 0 12-6l268-266q4-8 4-12z" />
<glyph unicode="&#x61;" glyph-name="facebook" d="M584 642h148l-18-162h-130v-470h-194v470h-98v162h98v98q0 104 48 158 50 52 162 52h130v-162h-80q-28 0-36-4-14-2-20-12-4-8-8-20 0-2-1-12t-1-16v-82z" />
<glyph unicode="&#x62;" glyph-name="icon-arrow-right" d="M644 748l-46-44 212-192h-746v-86h742l-208-192 46-50 302 282z" />
<glyph unicode="&#x63;" glyph-name="sharethis" d="M376 448v-10l330-164q44 38 104 38 68 0 115-47t47-115-47-115-115-47-115 47-47 115v10l-330 164q-44-38-104-38-68 0-115 47t-47 115 47 115 115 47q60 0 104-38l330 164v10q0 68 47 115t115 47 115-47 47-115-47-115-115-47q-60 0-104 38l-330-164v-10z" />
<glyph unicode="&#x64;" glyph-name="icon-camera" d="M954 724q-16 0-26-8l-198-114v94q0 32-23 54t-55 22h-548q-32 0-54-22t-22-54v-496q0-32 22-54t54-22h548q32 0 55 22t23 54v94l198-114q10-8 26-8 20 0 35 15t15 37v448q0 22-15 37t-35 15zM680 200q0-10-8-19t-20-9h-548q-12 0-20 9t-8 19v496q0 10 8 19t20 9h548q12 0 20-9t8-19v-496zM956 224l-2-2h-2l-222 128v196l222 128h2q2 0 2-2v-448z" />
<glyph unicode="&#x65;" glyph-name="icon-dots" d="M120 348v200h172v-200h-172zM426 348v200h172v-200h-172zM732 348v200h172v-200h-172z" />
<glyph unicode="&#x66;" glyph-name="icon-dots-vertical" d="M586 724q0-36-25-61t-59-25q-36 0-61 25t-25 61q0 34 25 59t61 25q34 0 59-25t25-59zM586 212q0-36-25-61t-59-25q-36 0-61 25t-25 61q0 34 25 59t61 25q34 0 59-25t25-59zM586 468q0-36-25-61t-59-25q-36 0-61 25t-25 61q0 34 25 59t61 25q34 0 59-25t25-59z" />
<glyph unicode="&#x67;" glyph-name="icon-foto" d="M924 140h-830q-32 0-55 22t-23 54v494q0 32 23 54t55 22h830q32 0 55-22t23-54v-494q0-32-23-54t-55-22zM94 738q-28 0-28-28v-494q0-10 8-19t20-9h830q12 0 20 9t8 19v494q0 28-28 28h-830zM654 256q-86 0-147 61t-61 147 61 147 147 61 148-61 62-147-61-147-149-61zM654 622q-66 0-112-47t-46-111q0-66 46-113t112-47 113 47 47 113q0 64-47 111t-113 47zM428 624q0-20-14-34t-34-14-34 14-14 34 14 34 34 14 34-14 14-34z" />
<glyph unicode="&#x68;" glyph-name="icon-lente" d="M898 852q-108 108-262 108t-262-108-108-262q0-134 88-238l-336-338 78-78 342 342q88-58 198-58 154 0 262 108t108 262-108 262zM814 412q-78-74-178-74-102 0-176 74t-74 178 74 178q72 72 176 72 102 0 178-72 74-74 74-178t-74-178z" />
<glyph unicode="&#x69;" glyph-name="twitter" d="M984 740q-42-58-98-100v-24q0-132-60-256-64-124-192-208-130-84-296-84-164 0-298 86 10-2 48-2 136 0 240 80-62 2-112 40-50 36-68 96 12-4 34-4 28 0 52 6-68 14-112 68-42 54-42 122v2q42-22 86-24-86 60-86 162 0 50 26 96 160-194 400-200-6 18-6 42 0 82 56 136 56 56 138 56 84 0 140-58 66 14 122 44-22-68-84-106 58 10 112 30v0z" />
<glyph unicode="&#x6a;" glyph-name="slideshare" d="M118 886v-424q-24 18-36 6-4-8-4-11t6-12 6-11q76-76 180-122-22-64-16-140 8-66 50-114t104-48q34 0 61 21t27 53v184q4 0 16-4t16-6v-172q0-18 8-32 30-42 80-42 66 2 105 49t49 113q6 74-16 142 4 2 25 12t29 14 28 15 30 18 26 18 25 21 17 23 12 25q0 12-14 12t-28-10v422h-786zM164 840h692v-404q-4-2-34-18l-612-6q-8 4-23 11t-23 11v406zM394 626q-44 0-74-30t-30-74q0-42 30-73t74-31q42 0 72 31t30 73q0 44-30 74t-72 30zM638 626q-42 0-73-30t-31-74q0-42 31-73t73-31q44 0 74 31t30 73q0 44-30 74t-74 30z" />
<glyph unicode="&#x6b;" glyph-name="youtube" d="M628 250v-122q0-38-22-38-14 0-26 12v172q12 14 26 14 22 0 22-38zM822 248v-26h-52v26q0 40 26 40t26-40zM270 374h60v52h-178v-52h60v-326h58v326zM434 48h50v282h-50v-216q-18-24-32-24-12 0-12 12-2 2-2 20v208h-50v-224q0-24 4-40 6-22 34-22t58 34v-30zM678 132v114q0 46-4 56-8 32-40 32-30 0-54-32v124h-50v-378h50v28q26-32 54-32 32 0 40 32 4 10 4 56zM872 138v8h-52q0-32-2-36-4-20-22-20-26 0-26 40v50h102v58q0 44-16 66-20 30-60 30-38 0-62-30-16-22-16-66v-98q0-44 18-66 20-30 62-30t60 30q12 16 12 32 2 2 2 32zM524 660v120q0 40-24 40t-24-40v-120q0-40 24-40t24 40zM936 230q0-126-16-200-6-30-32-56-30-24-58-26-106-12-318-12t-318 12q-28 2-58 26-26 26-32 56-16 70-16 200t16 200q6 32 32 58 30 24 60 26 106 12 316 12 212 0 318-12 28-2 58-26 26-26 32-58 16-68 16-200zM366 960h58l-70-228v-154h-56v154q-8 40-36 122-18 52-36 106h60l40-150zM576 770v-100q0-50-16-68-20-28-60-28t-60 28q-16 22-16 68v100q0 44 16 66 20 30 60 30t60-30q16-18 16-66zM768 862v-284h-52v30q-28-34-58-34-28 0-34 20-6 14-6 44v224h52v-210q0-6 1-10t1-6v-4q0-12 12-12 14 0 32 24v218h52z" />
<glyph unicode="&#x6c;" glyph-name="google-plus" d="M538 122q0 8-4 24 0 4-1 10t-3 10q-4 10-10 20-10 14-12 18l-32 32q-2 0-5 3l-6 6t-7 5q-12 10-18 12l-18 14q-14 8-18 12-2 0-12 1t-16 1q-22 0-62-4-44-10-60-16-34-10-56-26-26-16-40-42-16-28-16-62t20-68q22-32 54-48 38-22 68-26 40-10 74-10 38 0 64 8 26 6 56 22 26 14 44 42 16 28 16 62zM468 616q0 38-8 72-14 46-28 74-18 36-48 60t-68 24q-52 0-82-40-30-38-30-94 0-30 8-56 6-34 20-60 10-24 32-54 18-24 44-38t56-14q58 0 80 34 24 32 24 92zM394 886h250l-78-44h-76q42-30 62-72 22-50 22-96 0-42-12-76-16-36-32-52l-38-38q-18-12-32-34-14-16-14-40 0-12 10-28 6-10 24-28 10-8 34-28 6-4 12-9t13-11 11-10q14-14 34-38 16-22 24-50 10-30 10-60 0-90-80-162-86-74-240-74-34 0-68 6-32 6-70 18-40 16-62 34-26 20-44 50-18 32-18 70 0 34 22 78 18 34 54 62 36 26 84 42 60 16 88 20 30 4 86 8-36 48-36 84v14q2 2 2 6t2 6l4 12q2 2 2 6t2 6q-32-4-40-4-84 0-146 56-62 58-62 142 0 80 56 142 56 64 132 82 44 10 108 10zM988 740v-72h-146v-146h-74v146h-146v72h146v146h74v-146h146z" />
<glyph unicode="&#x6d;" glyph-name="flickr" d="M786 886q68 0 116-48t48-116v-548q0-68-48-116t-116-48h-548q-68 0-116 48t-48 116v548q0 68 48 116t116 48h548zM472 448q0 50-36 86t-86 36-84-36q-36-36-36-86t36-86q34-36 84-36t86 36 36 86zM794 448q0 50-36 86-32 36-84 36-50 0-86-36t-36-86 36-86 86-36 84 36q36 36 36 86z" />
<glyph unicode="&#x6e;" glyph-name="rss-two" d="M330 192q0-42-32-78-32-32-78-32t-78 32-32 78 32 78 78 32 78-32q32-36 32-78zM622 122q0-18-10-28-8-12-26-12h-78q-14 0-24 10-12 8-12 24-12 130-106 224-92 92-224 104-14 4-22 12-10 8-10 24v78q0 18 12 26 8 10 24 10h4q88-6 174-46 82-38 148-104 64-60 104-148 36-78 46-174zM914 120q2-14-10-26-8-12-26-12h-82q-12 0-26 10-10 10-10 24-10 128-58 234-50 110-132 192t-192 132q-114 52-234 58-16 0-24 12-10 10-10 24v82q0 18 12 26 8 10 24 10h2q154-6 286-68 134-58 244-168 104-104 168-242 62-144 68-288z" />
<glyph unicode="&#x6f;" glyph-name="icon-arrow-left" d="M70 466l302-282 48 50-210 192h744v86h-746l212 192-48 44z" />
<glyph unicode="&#x70;" glyph-name="icon-top" d="M872 266l-50-58-310 364-310-364-50 58 360 422z" />
<glyph unicode="&#x71;" glyph-name="icon-bottom" d="M152 630l50 58 310-364 310 364 50-58-360-422z" />
<glyph unicode="&#x72;" glyph-name="icon-pdf" d="M270 606h-74v-200h42v58h32q36 0 54 18t18 54q0 70-72 70zM270 498h-32v72h32q16 0 22-8 8-6 8-26 0-38-30-38zM506 582q-10 12-26 18-18 6-42 6h-68v-200h68q26 0 42 6 18 6 26 20 8 12 14 32 2 12 2 44 0 34-4 44-2 18-12 30zM480 484q-4-26-10-32-12-12-32-12h-28v130h28q16 0 22-4 10-4 14-10l6-18v-54zM558 406h40v70h72v36h-72v58h88v36h-128v-200zM918 798h-108v100q0 10-7 17t-17 7h-680q-10 0-17-7t-7-17v-778q0-22 24-22h108v-100q0-10 7-17t17-7h680q10 0 17 7t7 17v778q0 22-24 22zM130 874h632v-730h-632v730zM894 22h-632v76h524q24 0 24 22v632h84v-730z" />
<glyph unicode="&#x73;" glyph-name="icon-left" d="M196 448l422 360 58-50-364-310 364-310-58-50z" />
<glyph unicode="&#x74;" glyph-name="icon-right" d="M374 88l-60 50 364 310-364 310 60 50 420-360z" />
<glyph unicode="&#x75;" glyph-name="icon-play" d="M512 878q-178 0-304-126t-126-304 126-305 304-127 304 127 126 305-126 304-304 126zM626 436l-178-150v302z" />
<glyph unicode="&#x76;" glyph-name="icon-expand-media" d="M940 0h-856q-22 0-22 22v856q0 24 22 24h856q22 0 22-24v-856q0-22-22-22zM106 44h812v812h-812v-812zM738 530q-22 0-22 22v102h-102q-22 0-22 22 0 24 22 24h124q22 0 22-24v-124q0-22-22-22zM286 530q-22 0-22 22v124q0 24 22 24h124q22 0 22-24 0-22-22-22h-102v-102q0-22-22-22zM410 202h-124q-22 0-22 22v124q0 22 22 22t22-22v-102h102q22 0 22-22t-22-22zM738 202h-124q-22 0-22 22t22 22h102v102q0 22 22 22t22-22v-124q0-22-22-22z" />
<glyph unicode="&#x77;" glyph-name="icon-close" d="M546 448l432 432q18 18 0 34-16 18-34 0l-432-432-432 432q-18 18-34 0-18-16 0-34l432-432-432-432q-16-18 0-34 8-8 18-8t16 8l432 432 432-432q6-8 16-8t18 8q16 16 0 34z" />
<glyph unicode="&#x78;" glyph-name="icon-pin" d="M774 634q0-64-65-223t-131-285l-66-126q-30 54-73 139t-116 258-73 237q0 108 77 185t185 77 185-77 77-185z" />
<glyph unicode="&#x79;" glyph-name="icon-view-01" d="M190 718q0-26-18-44t-44-18-44 18-18 44 18 45 44 19 44-19 18-45zM190 448q0-26-18-44t-44-18-44 18-18 44 18 44 44 18 44-18 18-44zM190 178q0-26-18-45t-44-19-44 19-18 45 18 44 44 18 44-18 18-44zM974 718q0-16-12-28t-28-12h-578q-16 0-28 12t-12 28 12 28 28 12h578q16 0 28-12t12-28zM974 448q0-16-12-28t-28-12h-578q-16 0-28 12t-12 28 12 28 28 12h578q16 0 28-12t12-28zM974 182q0-16-12-28t-28-12h-578q-16 0-28 12t-12 28q0 18 12 29t28 11h578q16 2 28-10t12-30z" />
<glyph unicode="&#x7a;" glyph-name="icon-view-02" d="M54 906h344v-344h-344v344zM54 334h344v-344h-344v344zM626 906h344v-344h-344v344zM626 334h344v-344h-344v344z" />
</font>
</defs>
</svg>
