<?xml version="1.0" encoding="utf-8"?>
<!-- Generated by IcoMoon.io -->
<!DOCTYPE svg PUBLIC "-//W3C//DTD SVG 1.1//EN" "http://www.w3.org/Graphics/SVG/1.1/DTD/svg11.dtd">
<svg version="1.1" xmlns="http://www.w3.org/2000/svg" xmlns:xlink="http://www.w3.org/1999/xlink" width="32" height="32" viewBox="0 0 32 32">
<path fill="#444" d="M24.563 2.313q2.125 0 3.625 1.5t1.5 3.625v17.125q0 2.125-1.5 3.625t-3.625 1.5h-17.125q-2.125 0-3.625-1.5t-1.5-3.625v-17.125q0-2.125 1.5-3.625t3.625-1.5h17.125zM14.75 16q0-1.563-1.125-2.688t-2.688-1.125-2.625 1.125q-1.125 1.125-1.125 2.688t1.125 2.688q1.063 1.125 2.625 1.125t2.688-1.125 1.125-2.688zM24.813 16q0-1.563-1.125-2.688-1-1.125-2.625-1.125-1.563 0-2.688 1.125t-1.125 2.688 1.125 2.688 2.688 1.125 2.625-1.125q1.125-1.125 1.125-2.688z"></path>
</svg>
