<?xml version="1.0" encoding="utf-8"?>
<!-- Generated by IcoMoon.io -->
<!DOCTYPE svg PUBLIC "-//W3C//DTD SVG 1.1//EN" "http://www.w3.org/Graphics/SVG/1.1/DTD/svg11.dtd">
<svg version="1.1" xmlns="http://www.w3.org/2000/svg" xmlns:xlink="http://www.w3.org/1999/xlink" width="32" height="32" viewBox="0 0 32 32">
<path fill="#444" d="M31.75 0.688q-0.063-0.375-0.438-0.438-0.063-0.063-0.25-0.063h-15.063q-0.813 0-0.813 0.75 0 0.813 0.813 0.813h13.125l-17.813 17.813q-0.563 0.563 0 1.125 0.313 0.188 0.563 0.188 0.375 0 0.563-0.188l17.813-17.813v13.188q0 0.813 0.813 0.813 0.75 0 0.75-0.813v-15.125q0-0.188-0.063-0.25zM23 19.313q-0.813 0-0.813 0.813 0 4.25-3.031 7.281t-7.281 3.031-7.281-3.031-3.031-7.281 3.031-7.281 7.281-3.031q0.813 0 0.813-0.813t-0.813-0.813q-4.938 0-8.406 3.5t-3.469 8.438 3.469 8.406 8.406 3.469 8.438-3.469 3.5-8.406q0-0.813-0.813-0.813z"></path>
</svg>
