<?xml version="1.0" encoding="utf-8"?>
<!-- Generated by IcoMoon.io -->
<!DOCTYPE svg PUBLIC "-//W3C//DTD SVG 1.1//EN" "http://www.w3.org/Graphics/SVG/1.1/DTD/svg11.dtd">
<svg version="1.1" xmlns="http://www.w3.org/2000/svg" xmlns:xlink="http://www.w3.org/1999/xlink" width="32" height="32" viewBox="0 0 32 32">
<path fill="#444" d="M8.438 11.063h-2.313v6.25h1.313v-1.813h1q1.125 0 1.688-0.563t0.563-1.688q0-2.188-2.25-2.188zM8.438 14.438h-1v-2.25h1q0.5 0 0.688 0.25 0.25 0.188 0.25 0.813 0 1.188-0.938 1.188zM15.813 11.813q-0.313-0.375-0.813-0.563-0.563-0.188-1.313-0.188h-2.125v6.25h2.125q0.813 0 1.313-0.188 0.563-0.188 0.813-0.625 0.25-0.375 0.438-1 0.063-0.375 0.063-1.375 0-1.063-0.125-1.375-0.063-0.563-0.375-0.938zM15 14.875q-0.125 0.813-0.313 1-0.375 0.375-1 0.375h-0.875v-4.063h0.875q0.5 0 0.688 0.125 0.313 0.125 0.438 0.313l0.188 0.563v1.688zM17.438 17.313h1.25v-2.188h2.25v-1.125h-2.25v-1.813h2.75v-1.125h-4v6.25zM28.688 5.063h-3.375v-3.125q0-0.313-0.219-0.531t-0.531-0.219h-21.25q-0.313 0-0.531 0.219t-0.219 0.531v24.313q0 0.688 0.75 0.688h3.375v3.125q0 0.313 0.219 0.531t0.531 0.219h21.25q0.313 0 0.531-0.219t0.219-0.531v-24.313q0-0.688-0.75-0.688zM4.063 2.688h19.75v22.813h-19.75v-22.813zM27.938 29.313h-19.75v-2.375h16.375q0.75 0 0.75-0.688v-19.75h2.625v22.813z"></path>
</svg>
