<?xml version="1.0" encoding="utf-8"?>
<!-- Generated by IcoMoon.io -->
<!DOCTYPE svg PUBLIC "-//W3C//DTD SVG 1.1//EN" "http://www.w3.org/Graphics/SVG/1.1/DTD/svg11.dtd">
<svg version="1.1" xmlns="http://www.w3.org/2000/svg" xmlns:xlink="http://www.w3.org/1999/xlink" width="32" height="32" viewBox="0 0 32 32">
<path fill="#444" d="M28.688 5.063h-3.375v-3.125q0-0.313-0.219-0.531t-0.531-0.219h-21.25q-0.313 0-0.531 0.219t-0.219 0.531v24.313q0 0.688 0.75 0.688h3.375v3.125q0 0.313 0.219 0.531t0.531 0.219h21.25q0.313 0 0.531-0.219t0.219-0.531v-24.313q0-0.688-0.75-0.688zM4.063 2.688h19.75v22.813h-19.75v-22.813zM27.938 29.313h-19.75v-2.375h16.375q0.75 0 0.75-0.688v-19.75h2.625v22.813z"></path>
</svg>
