<?xml version="1.0" encoding="utf-8"?>
<!-- Generated by IcoMoon.io -->
<!DOCTYPE svg PUBLIC "-//W3C//DTD SVG 1.1//EN" "http://www.w3.org/Graphics/SVG/1.1/DTD/svg11.dtd">
<svg version="1.1" xmlns="http://www.w3.org/2000/svg" xmlns:xlink="http://www.w3.org/1999/xlink" width="32" height="32" viewBox="0 0 32 32">
<path fill="#444" d="M16 1.813q-5.813 0-9.969 4.156t-4.156 10.031 4.156 10.031 9.969 4.156q5.875 0 10.031-4.156t4.156-10.031-4.156-10.031-10.031-4.156zM16 26.625q-4.375 0-7.5-3.125t-3.125-7.5 3.125-7.5 7.5-3.125 7.5 3.125 3.125 7.5-3.125 7.5-7.5 3.125zM16 8.938q-2.875 0-4.969 2.094t-2.094 4.969q0 2.938 2.063 5t5 2.063 5.031-2.063 2.094-5-2.094-5-5.031-2.063z"></path>
</svg>
