<?xml version="1.0" encoding="utf-8"?>
<!-- Generated by IcoMoon.io -->
<!DOCTYPE svg PUBLIC "-//W3C//DTD SVG 1.1//EN" "http://www.w3.org/Graphics/SVG/1.1/DTD/svg11.dtd">
<svg version="1.1" xmlns="http://www.w3.org/2000/svg" xmlns:xlink="http://www.w3.org/1999/xlink" width="32" height="32" viewBox="0 0 32 32">
<path fill="#444" d="M28.875 25.625h-25.938q-1 0-1.719-0.688t-0.719-1.688v-15.438q0-1 0.719-1.688t1.719-0.688h25.938q1 0 1.719 0.688t0.719 1.688v15.438q0 1-0.719 1.688t-1.719 0.688zM2.938 6.938q-0.875 0-0.875 0.875v15.438q0 0.313 0.25 0.594t0.625 0.281h25.938q0.375 0 0.625-0.281t0.25-0.594v-15.438q0-0.875-0.875-0.875h-25.938zM20.438 22q-2.688 0-4.594-1.906t-1.906-4.594 1.906-4.594 4.594-1.906 4.625 1.906 1.938 4.594-1.906 4.594-4.656 1.906zM20.438 10.563q-2.063 0-3.5 1.469t-1.438 3.469q0 2.063 1.438 3.531t3.5 1.469 3.531-1.469 1.469-3.531q0-2-1.469-3.469t-3.531-1.469zM13.375 10.5q0 0.625-0.438 1.063t-1.063 0.438-1.063-0.438-0.438-1.063 0.438-1.063 1.063-0.438 1.063 0.438 0.438 1.063z"></path>
</svg>
