<?xml version="1.0" encoding="utf-8"?>
<!-- Generated by IcoMoon.io -->
<!DOCTYPE svg PUBLIC "-//W3C//DTD SVG 1.1//EN" "http://www.w3.org/Graphics/SVG/1.1/DTD/svg11.dtd">
<svg version="1.1" xmlns="http://www.w3.org/2000/svg" xmlns:xlink="http://www.w3.org/1999/xlink" width="32" height="32" viewBox="0 0 32 32">
<path fill="#444" d="M28.063 3.375q-3.375-3.375-8.188-3.375t-8.188 3.375-3.375 8.188q0 4.188 2.75 7.438l-10.5 10.563 2.438 2.438 10.688-10.688q2.75 1.813 6.188 1.813 4.813 0 8.188-3.375t3.375-8.188-3.375-8.188zM25.438 17.125q-2.438 2.313-5.563 2.313-3.188 0-5.5-2.313t-2.313-5.563 2.313-5.563q2.25-2.25 5.5-2.25 3.188 0 5.563 2.25 2.313 2.313 2.313 5.563t-2.313 5.563z"></path>
</svg>
