<?xml version="1.0" encoding="utf-8"?>
<!-- Generated by IcoMoon.io -->
<!DOCTYPE svg PUBLIC "-//W3C//DTD SVG 1.1//EN" "http://www.w3.org/Graphics/SVG/1.1/DTD/svg11.dtd">
<svg version="1.1" xmlns="http://www.w3.org/2000/svg" xmlns:xlink="http://www.w3.org/1999/xlink" width="32" height="32" viewBox="0 0 32 32">
<path fill="#444" d="M29.813 7.375q-0.5 0-0.813 0.25l-6.188 3.563v-2.938q0-1-0.719-1.688t-1.719-0.688h-17.125q-1 0-1.688 0.688t-0.688 1.688v15.5q0 1 0.688 1.688t1.688 0.688h17.125q1 0 1.719-0.688t0.719-1.688v-2.938l6.188 3.563q0.313 0.25 0.813 0.25 0.625 0 1.094-0.469t0.469-1.156v-14q0-0.688-0.469-1.156t-1.094-0.469zM21.25 23.75q0 0.313-0.25 0.594t-0.625 0.281h-17.125q-0.375 0-0.625-0.281t-0.25-0.594v-15.5q0-0.313 0.25-0.594t0.625-0.281h17.125q0.375 0 0.625 0.281t0.25 0.594v15.5zM29.875 23l-0.063 0.063h-0.063l-6.938-4v-6.125l6.938-4h0.063q0.063 0 0.063 0.063v14z"></path>
</svg>
