<?xml version="1.0" encoding="utf-8"?>
<!-- Generated by IcoMoon.io -->
<!DOCTYPE svg PUBLIC "-//W3C//DTD SVG 1.1//EN" "http://www.w3.org/Graphics/SVG/1.1/DTD/svg11.dtd">
<svg version="1.1" xmlns="http://www.w3.org/2000/svg" xmlns:xlink="http://www.w3.org/1999/xlink" width="32" height="32" viewBox="0 0 32 32">
<path fill="#444" d="M11.75 16v0.313l10.313 5.125q1.375-1.188 3.25-1.188 2.125 0 3.594 1.469t1.469 3.594-1.469 3.594-3.594 1.469-3.594-1.469-1.469-3.594v-0.313l-10.313-5.125q-1.375 1.188-3.25 1.188-2.125 0-3.594-1.469t-1.469-3.594 1.469-3.594 3.594-1.469q1.875 0 3.25 1.188l10.313-5.125v-0.313q0-2.125 1.469-3.594t3.594-1.469 3.594 1.469 1.469 3.594-1.469 3.594-3.594 1.469q-1.875 0-3.25-1.188l-10.313 5.125v0.313z"></path>
</svg>
