<?xml version="1.0" encoding="utf-8"?>
<!-- Generated by IcoMoon.io -->
<!DOCTYPE svg PUBLIC "-//W3C//DTD SVG 1.1//EN" "http://www.w3.org/Graphics/SVG/1.1/DTD/svg11.dtd">
<svg version="1.1" xmlns="http://www.w3.org/2000/svg" xmlns:xlink="http://www.w3.org/1999/xlink" width="32" height="32" viewBox="0 0 32 32">
<path fill="#444" d="M30.75 6.875q-1.313 1.813-3.063 3.125v0.75q0 4.125-1.875 8-2 3.875-6 6.5-4.063 2.625-9.25 2.625-5.125 0-9.313-2.688 0.313 0.063 1.5 0.063 4.25 0 7.5-2.5-1.938-0.063-3.5-1.25-1.563-1.125-2.125-3 0.375 0.125 1.063 0.125 0.875 0 1.625-0.188-2.125-0.438-3.5-2.125-1.313-1.688-1.313-3.813v-0.063q1.313 0.688 2.688 0.75-2.688-1.875-2.688-5.063 0-1.563 0.813-3 5 6.063 12.5 6.25-0.188-0.563-0.188-1.313 0-2.563 1.75-4.25 1.75-1.75 4.313-1.75 2.625 0 4.375 1.813 2.063-0.438 3.813-1.375-0.688 2.125-2.625 3.313 1.813-0.313 3.5-0.938v0z"></path>
</svg>
