<?xml version="1.0" encoding="utf-8"?>
<!-- Generated by IcoMoon.io -->
<!DOCTYPE svg PUBLIC "-//W3C//DTD SVG 1.1//EN" "http://www.w3.org/Graphics/SVG/1.1/DTD/svg11.dtd">
<svg version="1.1" xmlns="http://www.w3.org/2000/svg" xmlns:xlink="http://www.w3.org/1999/xlink" width="32" height="32" viewBox="0 0 32 32">
<path fill="#444" d="M19.625 22.188v3.813q0 1.188-0.688 1.188-0.438 0-0.813-0.375v-5.375q0.375-0.438 0.813-0.438 0.688 0 0.688 1.188zM25.688 22.25v0.813h-1.625v-0.813q0-1.25 0.813-1.25t0.813 1.25zM8.438 18.313h1.875v-1.625h-5.563v1.625h1.875v10.188h1.813v-10.188zM13.563 28.5h1.563v-8.813h-1.563v6.75q-0.563 0.75-1 0.75-0.375 0-0.375-0.375-0.063-0.063-0.063-0.625v-6.5h-1.563v7q0 0.75 0.125 1.25 0.188 0.688 1.063 0.688t1.813-1.063v0.938zM21.188 25.875v-3.563q0-1.438-0.125-1.75-0.25-1-1.25-1-0.938 0-1.688 1v-3.875h-1.563v11.813h1.563v-0.875q0.813 1 1.688 1 1 0 1.25-1 0.125-0.313 0.125-1.75zM27.25 25.688v-0.25h-1.625q0 1-0.063 1.125-0.125 0.625-0.688 0.625-0.813 0-0.813-1.25v-1.563h3.188v-1.813q0-1.375-0.5-2.063-0.625-0.938-1.875-0.938-1.188 0-1.938 0.938-0.5 0.688-0.5 2.063v3.063q0 1.375 0.563 2.063 0.625 0.938 1.938 0.938t1.875-0.938q0.375-0.5 0.375-1 0.063-0.063 0.063-1zM16.375 9.375v-3.75q0-1.25-0.75-1.25t-0.75 1.25v3.75q0 1.25 0.75 1.25t0.75-1.25zM29.25 22.813q0 3.938-0.5 6.25-0.188 0.938-1 1.75-0.938 0.75-1.813 0.813-3.313 0.375-9.938 0.375t-9.938-0.375q-0.875-0.063-1.813-0.813-0.813-0.813-1-1.75-0.5-2.188-0.5-6.25t0.5-6.25q0.188-1 1-1.813 0.938-0.75 1.875-0.813 3.313-0.375 9.875-0.375 6.625 0 9.938 0.375 0.875 0.063 1.813 0.813 0.813 0.813 1 1.813 0.5 2.125 0.5 6.25zM11.438 0h1.813l-2.188 7.125v4.813h-1.75v-4.813q-0.25-1.25-1.125-3.813-0.563-1.625-1.125-3.313h1.875l1.25 4.688zM18 5.938v3.125q0 1.563-0.5 2.125-0.625 0.875-1.875 0.875t-1.875-0.875q-0.5-0.688-0.5-2.125v-3.125q0-1.375 0.5-2.063 0.625-0.938 1.875-0.938t1.875 0.938q0.5 0.563 0.5 2.063zM24 3.063v8.875h-1.625v-0.938q-0.875 1.063-1.813 1.063-0.875 0-1.063-0.625-0.188-0.438-0.188-1.375v-7h1.625v6.563q0 0.188 0.031 0.313t0.031 0.188v0.125q0 0.375 0.375 0.375 0.438 0 1-0.75v-6.813h1.625z"></path>
</svg>
