<svg style="position: absolute; width: 0; height: 0;" width="0" height="0" version="1.1" xmlns="http://www.w3.org/2000/svg" xmlns:xlink="http://www.w3.org/1999/xlink">
<defs>
<symbol id="icon-facebook" viewBox="0 0 32 32">
<title>facebook</title>
<path class="path1" d="M18.25 9.938h4.625l-0.563 5.063h-4.063v14.688h-6.063v-14.688h-3.063v-5.063h3.063v-3.063q0-3.25 1.5-4.938 1.563-1.625 5.063-1.625h4.063v5.063h-2.5q-0.875 0-1.125 0.125-0.438 0.063-0.625 0.375-0.125 0.25-0.25 0.625 0 0.063-0.031 0.375t-0.031 0.5v2.563z"></path>
</symbol>
<symbol id="icon-sharethis" viewBox="0 0 32 32">
<title>sharethis</title>
<path class="path1" d="M11.75 16v0.313l10.313 5.125q1.375-1.188 3.25-1.188 2.125 0 3.594 1.469t1.469 3.594-1.469 3.594-3.594 1.469-3.594-1.469-1.469-3.594v-0.313l-10.313-5.125q-1.375 1.188-3.25 1.188-2.125 0-3.594-1.469t-1.469-3.594 1.469-3.594 3.594-1.469q1.875 0 3.25 1.188l10.313-5.125v-0.313q0-2.125 1.469-3.594t3.594-1.469 3.594 1.469 1.469 3.594-1.469 3.594-3.594 1.469q-1.875 0-3.25-1.188l-10.313 5.125v0.313z"></path>
</symbol>
<symbol id="icon-icon-arrow-right" viewBox="0 0 32 32">
<title>icon-arrow-right</title>
<path class="path1" d="M20.125 6.625l-1.438 1.375 6.625 6h-23.313v2.688h23.188l-6.5 6 1.438 1.563 9.438-8.813z"></path>
</symbol>
<symbol id="icon-icon-camera" viewBox="0 0 32 32">
<title>icon-camera</title>
<path class="path1" d="M29.813 7.375q-0.5 0-0.813 0.25l-6.188 3.563v-2.938q0-1-0.719-1.688t-1.719-0.688h-17.125q-1 0-1.688 0.688t-0.688 1.688v15.5q0 1 0.688 1.688t1.688 0.688h17.125q1 0 1.719-0.688t0.719-1.688v-2.938l6.188 3.563q0.313 0.25 0.813 0.25 0.625 0 1.094-0.469t0.469-1.156v-14q0-0.688-0.469-1.156t-1.094-0.469zM21.25 23.75q0 0.313-0.25 0.594t-0.625 0.281h-17.125q-0.375 0-0.625-0.281t-0.25-0.594v-15.5q0-0.313 0.25-0.594t0.625-0.281h17.125q0.375 0 0.625 0.281t0.25 0.594v15.5zM29.875 23l-0.063 0.063h-0.063l-6.938-4v-6.125l6.938-4h0.063q0.063 0 0.063 0.063v14z"></path>
</symbol>
<symbol id="icon-icon-dots" viewBox="0 0 32 32">
<title>icon-dots</title>
<path class="path1" d="M3.75 19.125v-6.25h5.375v6.25h-5.375zM13.313 19.125v-6.25h5.375v6.25h-5.375zM22.875 19.125v-6.25h5.375v6.25h-5.375z"></path>
</symbol>
<symbol id="icon-icon-dots-vertical" viewBox="0 0 32 32">
<title>icon-dots-vertical</title>
<path class="path1" d="M18.313 7.375q0 1.125-0.781 1.906t-1.844 0.781q-1.125 0-1.906-0.781t-0.781-1.906q0-1.063 0.781-1.844t1.906-0.781q1.063 0 1.844 0.781t0.781 1.844zM18.313 23.375q0 1.125-0.781 1.906t-1.844 0.781q-1.125 0-1.906-0.781t-0.781-1.906q0-1.063 0.781-1.844t1.906-0.781q1.063 0 1.844 0.781t0.781 1.844zM18.313 15.375q0 1.125-0.781 1.906t-1.844 0.781q-1.125 0-1.906-0.781t-0.781-1.906q0-1.063 0.781-1.844t1.906-0.781q1.063 0 1.844 0.781t0.781 1.844z"></path>
</symbol>
<symbol id="icon-icon-foto" viewBox="0 0 32 32">
<title>icon-foto</title>
<path class="path1" d="M28.875 25.625h-25.938q-1 0-1.719-0.688t-0.719-1.688v-15.438q0-1 0.719-1.688t1.719-0.688h25.938q1 0 1.719 0.688t0.719 1.688v15.438q0 1-0.719 1.688t-1.719 0.688zM2.938 6.938q-0.875 0-0.875 0.875v15.438q0 0.313 0.25 0.594t0.625 0.281h25.938q0.375 0 0.625-0.281t0.25-0.594v-15.438q0-0.875-0.875-0.875h-25.938zM20.438 22q-2.688 0-4.594-1.906t-1.906-4.594 1.906-4.594 4.594-1.906 4.625 1.906 1.938 4.594-1.906 4.594-4.656 1.906zM20.438 10.563q-2.063 0-3.5 1.469t-1.438 3.469q0 2.063 1.438 3.531t3.5 1.469 3.531-1.469 1.469-3.531q0-2-1.469-3.469t-3.531-1.469zM13.375 10.5q0 0.625-0.438 1.063t-1.063 0.438-1.063-0.438-0.438-1.063 0.438-1.063 1.063-0.438 1.063 0.438 0.438 1.063z"></path>
</symbol>
<symbol id="icon-icon-lente" viewBox="0 0 32 32">
<title>icon-lente</title>
<path class="path1" d="M28.063 3.375q-3.375-3.375-8.188-3.375t-8.188 3.375-3.375 8.188q0 4.188 2.75 7.438l-10.5 10.563 2.438 2.438 10.688-10.688q2.75 1.813 6.188 1.813 4.813 0 8.188-3.375t3.375-8.188-3.375-8.188zM25.438 17.125q-2.438 2.313-5.563 2.313-3.188 0-5.5-2.313t-2.313-5.563 2.313-5.563q2.25-2.25 5.5-2.25 3.188 0 5.563 2.25 2.313 2.313 2.313 5.563t-2.313 5.563z"></path>
</symbol>
<symbol id="icon-slideshare" viewBox="0 0 32 32">
<title>slideshare</title>
<path class="path1" d="M3.688 2.313v13.25q-0.75-0.563-1.125-0.188-0.125 0.25-0.125 0.344t0.188 0.375 0.188 0.344q2.375 2.375 5.625 3.813-0.688 2-0.5 4.375 0.25 2.063 1.563 3.563t3.25 1.5q1.063 0 1.906-0.656t0.844-1.656v-5.75q0.125 0 0.5 0.125t0.5 0.188v5.375q0 0.563 0.25 1 0.938 1.313 2.5 1.313 2.063-0.063 3.281-1.531t1.531-3.531q0.188-2.313-0.5-4.438 0.125-0.063 0.781-0.375t0.906-0.438 0.875-0.469 0.938-0.563 0.813-0.563 0.781-0.656 0.531-0.719 0.375-0.781q0-0.375-0.438-0.375t-0.875 0.313v-13.188h-24.563zM5.125 3.75h21.625v12.625q-0.125 0.063-1.063 0.563l-19.125 0.188q-0.25-0.125-0.719-0.344t-0.719-0.344v-12.688zM12.313 10.438q-1.375 0-2.313 0.938t-0.938 2.313q0 1.313 0.938 2.281t2.313 0.969q1.313 0 2.25-0.969t0.938-2.281q0-1.375-0.938-2.313t-2.25-0.938zM19.938 10.438q-1.313 0-2.281 0.938t-0.969 2.313q0 1.313 0.969 2.281t2.281 0.969q1.375 0 2.313-0.969t0.938-2.281q0-1.375-0.938-2.313t-2.313-0.938z"></path>
</symbol>
<symbol id="icon-twitter" viewBox="0 0 32 32">
<title>twitter</title>
<path class="path1" d="M30.75 6.875q-1.313 1.813-3.063 3.125v0.75q0 4.125-1.875 8-2 3.875-6 6.5-4.063 2.625-9.25 2.625-5.125 0-9.313-2.688 0.313 0.063 1.5 0.063 4.25 0 7.5-2.5-1.938-0.063-3.5-1.25-1.563-1.125-2.125-3 0.375 0.125 1.063 0.125 0.875 0 1.625-0.188-2.125-0.438-3.5-2.125-1.313-1.688-1.313-3.813v-0.063q1.313 0.688 2.688 0.75-2.688-1.875-2.688-5.063 0-1.563 0.813-3 5 6.063 12.5 6.25-0.188-0.563-0.188-1.313 0-2.563 1.75-4.25 1.75-1.75 4.313-1.75 2.625 0 4.375 1.813 2.063-0.438 3.813-1.375-0.688 2.125-2.625 3.313 1.813-0.313 3.5-0.938v0z"></path>
</symbol>
<symbol id="icon-youtube" viewBox="0 0 32 32">
<title>youtube</title>
<path class="path1" d="M19.625 22.188v3.813q0 1.188-0.688 1.188-0.438 0-0.813-0.375v-5.375q0.375-0.438 0.813-0.438 0.688 0 0.688 1.188zM25.688 22.25v0.813h-1.625v-0.813q0-1.25 0.813-1.25t0.813 1.25zM8.438 18.313h1.875v-1.625h-5.563v1.625h1.875v10.188h1.813v-10.188zM13.563 28.5h1.563v-8.813h-1.563v6.75q-0.563 0.75-1 0.75-0.375 0-0.375-0.375-0.063-0.063-0.063-0.625v-6.5h-1.563v7q0 0.75 0.125 1.25 0.188 0.688 1.063 0.688t1.813-1.063v0.938zM21.188 25.875v-3.563q0-1.438-0.125-1.75-0.25-1-1.25-1-0.938 0-1.688 1v-3.875h-1.563v11.813h1.563v-0.875q0.813 1 1.688 1 1 0 1.25-1 0.125-0.313 0.125-1.75zM27.25 25.688v-0.25h-1.625q0 1-0.063 1.125-0.125 0.625-0.688 0.625-0.813 0-0.813-1.25v-1.563h3.188v-1.813q0-1.375-0.5-2.063-0.625-0.938-1.875-0.938-1.188 0-1.938 0.938-0.5 0.688-0.5 2.063v3.063q0 1.375 0.563 2.063 0.625 0.938 1.938 0.938t1.875-0.938q0.375-0.5 0.375-1 0.063-0.063 0.063-1zM16.375 9.375v-3.75q0-1.25-0.75-1.25t-0.75 1.25v3.75q0 1.25 0.75 1.25t0.75-1.25zM29.25 22.813q0 3.938-0.5 6.25-0.188 0.938-1 1.75-0.938 0.75-1.813 0.813-3.313 0.375-9.938 0.375t-9.938-0.375q-0.875-0.063-1.813-0.813-0.813-0.813-1-1.75-0.5-2.188-0.5-6.25t0.5-6.25q0.188-1 1-1.813 0.938-0.75 1.875-0.813 3.313-0.375 9.875-0.375 6.625 0 9.938 0.375 0.875 0.063 1.813 0.813 0.813 0.813 1 1.813 0.5 2.125 0.5 6.25zM11.438 0h1.813l-2.188 7.125v4.813h-1.75v-4.813q-0.25-1.25-1.125-3.813-0.563-1.625-1.125-3.313h1.875l1.25 4.688zM18 5.938v3.125q0 1.563-0.5 2.125-0.625 0.875-1.875 0.875t-1.875-0.875q-0.5-0.688-0.5-2.125v-3.125q0-1.375 0.5-2.063 0.625-0.938 1.875-0.938t1.875 0.938q0.5 0.563 0.5 2.063zM24 3.063v8.875h-1.625v-0.938q-0.875 1.063-1.813 1.063-0.875 0-1.063-0.625-0.188-0.438-0.188-1.375v-7h1.625v6.563q0 0.188 0.031 0.313t0.031 0.188v0.125q0 0.375 0.375 0.375 0.438 0 1-0.75v-6.813h1.625z"></path>
</symbol>
<symbol id="icon-google-plus" viewBox="0 0 32 32">
<title>google-plus</title>
<path class="path1" d="M16.813 26.188q0-0.25-0.125-0.75 0-0.125-0.031-0.313t-0.094-0.313q-0.125-0.313-0.313-0.625-0.313-0.438-0.375-0.563l-1-1q-0.063 0-0.156-0.094l-0.188-0.188t-0.219-0.156q-0.375-0.313-0.563-0.375l-0.563-0.438q-0.438-0.25-0.563-0.375-0.063 0-0.375-0.031t-0.5-0.031q-0.688 0-1.938 0.125-1.375 0.313-1.875 0.5-1.063 0.313-1.75 0.813-0.813 0.5-1.25 1.313-0.5 0.875-0.5 1.938t0.625 2.125q0.688 1 1.688 1.5 1.188 0.688 2.125 0.813 1.25 0.313 2.313 0.313 1.188 0 2-0.25 0.813-0.188 1.75-0.688 0.813-0.438 1.375-1.313 0.5-0.875 0.5-1.938zM14.625 10.75q0-1.188-0.25-2.25-0.438-1.438-0.875-2.313-0.563-1.125-1.5-1.875t-2.125-0.75q-1.625 0-2.563 1.25-0.938 1.188-0.938 2.938 0 0.938 0.25 1.75 0.188 1.063 0.625 1.875 0.313 0.75 1 1.688 0.563 0.75 1.375 1.188t1.75 0.438q1.813 0 2.5-1.063 0.75-1 0.75-2.875zM12.313 2.313h7.813l-2.438 1.375h-2.375q1.313 0.938 1.938 2.25 0.688 1.563 0.688 3 0 1.313-0.375 2.375-0.5 1.125-1 1.625l-1.188 1.188q-0.563 0.375-1 1.063-0.438 0.5-0.438 1.25 0 0.375 0.313 0.875 0.188 0.313 0.75 0.875 0.313 0.25 1.063 0.875 0.188 0.125 0.375 0.281t0.406 0.344 0.344 0.313q0.438 0.438 1.063 1.188 0.5 0.688 0.75 1.563 0.313 0.938 0.313 1.875 0 2.813-2.5 5.063-2.688 2.313-7.5 2.313-1.063 0-2.125-0.188-1-0.188-2.188-0.563-1.25-0.5-1.938-1.063-0.813-0.625-1.375-1.563-0.563-1-0.563-2.188 0-1.063 0.688-2.438 0.563-1.063 1.688-1.938 1.125-0.813 2.625-1.313 1.875-0.5 2.75-0.625 0.938-0.125 2.688-0.25-1.125-1.5-1.125-2.625v-0.438q0.063-0.063 0.063-0.188t0.063-0.188l0.125-0.375q0.063-0.063 0.063-0.188t0.063-0.188q-1 0.125-1.25 0.125-2.625 0-4.563-1.75-1.938-1.813-1.938-4.438 0-2.5 1.75-4.438 1.75-2 4.125-2.563 1.375-0.313 3.375-0.313zM30.875 6.875v2.25h-4.563v4.563h-2.313v-4.563h-4.563v-2.25h4.563v-4.563h2.313v4.563h4.563z"></path>
</symbol>
<symbol id="icon-flickr" viewBox="0 0 32 32">
<title>flickr</title>
<path class="path1" d="M24.563 2.313q2.125 0 3.625 1.5t1.5 3.625v17.125q0 2.125-1.5 3.625t-3.625 1.5h-17.125q-2.125 0-3.625-1.5t-1.5-3.625v-17.125q0-2.125 1.5-3.625t3.625-1.5h17.125zM14.75 16q0-1.563-1.125-2.688t-2.688-1.125-2.625 1.125q-1.125 1.125-1.125 2.688t1.125 2.688q1.063 1.125 2.625 1.125t2.688-1.125 1.125-2.688zM24.813 16q0-1.563-1.125-2.688-1-1.125-2.625-1.125-1.563 0-2.688 1.125t-1.125 2.688 1.125 2.688 2.688 1.125 2.625-1.125q1.125-1.125 1.125-2.688z"></path>
</symbol>
<symbol id="icon-rss-two" viewBox="0 0 32 32">
<title>rss-two</title>
<path class="path1" d="M10.313 24q0 1.313-1 2.438-1 1-2.438 1t-2.438-1-1-2.438 1-2.438 2.438-1 2.438 1q1 1.125 1 2.438zM19.438 26.188q0 0.563-0.313 0.875-0.25 0.375-0.813 0.375h-2.438q-0.438 0-0.75-0.313-0.375-0.25-0.375-0.75-0.375-4.063-3.313-7-2.875-2.875-7-3.25-0.438-0.125-0.688-0.375-0.313-0.25-0.313-0.75v-2.438q0-0.563 0.375-0.813 0.25-0.313 0.75-0.313h0.125q2.75 0.188 5.438 1.438 2.563 1.188 4.625 3.25 2 1.875 3.25 4.625 1.125 2.438 1.438 5.438zM28.563 26.25q0.063 0.438-0.313 0.813-0.25 0.375-0.813 0.375h-2.563q-0.375 0-0.813-0.313-0.313-0.313-0.313-0.75-0.313-4-1.813-7.313-1.563-3.438-4.125-6t-6-4.125q-3.563-1.625-7.313-1.813-0.5 0-0.75-0.375-0.313-0.313-0.313-0.75v-2.563q0-0.563 0.375-0.813 0.25-0.313 0.75-0.313h0.063q4.813 0.188 8.938 2.125 4.188 1.813 7.625 5.25 3.25 3.25 5.25 7.563 1.938 4.5 2.125 9z"></path>
</symbol>
<symbol id="icon-icon-arrow-left" viewBox="0 0 32 32">
<title>icon-arrow-left</title>
<path class="path1" d="M2.188 15.438l9.438 8.813 1.5-1.563-6.563-6h23.25v-2.688h-23.313l6.625-6-1.5-1.375z"></path>
</symbol>
<symbol id="icon-icon-top" viewBox="0 0 32 32">
<title>icon-top</title>
<path class="path1" d="M27.25 21.688l-1.563 1.813-9.688-11.375-9.688 11.375-1.563-1.813 11.25-13.188z"></path>
</symbol>
<symbol id="icon-icon-bottom" viewBox="0 0 32 32">
<title>icon-bottom</title>
<path class="path1" d="M4.75 10.313l1.563-1.813 9.688 11.375 9.688-11.375 1.563 1.813-11.25 13.188z"></path>
</symbol>
<symbol id="icon-icon-pdf" viewBox="0 0 32 32">
<title>icon-pdf</title>
<path class="path1" d="M8.438 11.063h-2.313v6.25h1.313v-1.813h1q1.125 0 1.688-0.563t0.563-1.688q0-2.188-2.25-2.188zM8.438 14.438h-1v-2.25h1q0.5 0 0.688 0.25 0.25 0.188 0.25 0.813 0 1.188-0.938 1.188zM15.813 11.813q-0.313-0.375-0.813-0.563-0.563-0.188-1.313-0.188h-2.125v6.25h2.125q0.813 0 1.313-0.188 0.563-0.188 0.813-0.625 0.25-0.375 0.438-1 0.063-0.375 0.063-1.375 0-1.063-0.125-1.375-0.063-0.563-0.375-0.938zM15 14.875q-0.125 0.813-0.313 1-0.375 0.375-1 0.375h-0.875v-4.063h0.875q0.5 0 0.688 0.125 0.313 0.125 0.438 0.313l0.188 0.563v1.688zM17.438 17.313h1.25v-2.188h2.25v-1.125h-2.25v-1.813h2.75v-1.125h-4v6.25zM28.688 5.063h-3.375v-3.125q0-0.313-0.219-0.531t-0.531-0.219h-21.25q-0.313 0-0.531 0.219t-0.219 0.531v24.313q0 0.688 0.75 0.688h3.375v3.125q0 0.313 0.219 0.531t0.531 0.219h21.25q0.313 0 0.531-0.219t0.219-0.531v-24.313q0-0.688-0.75-0.688zM4.063 2.688h19.75v22.813h-19.75v-22.813zM27.938 29.313h-19.75v-2.375h16.375q0.75 0 0.75-0.688v-19.75h2.625v22.813z"></path>
</symbol>
<symbol id="icon-icon-left" viewBox="0 0 32 32">
<title>icon-left</title>
<path class="path1" d="M6.125 16l13.188-11.25 1.813 1.563-11.375 9.688 11.375 9.688-1.813 1.563z"></path>
</symbol>
<symbol id="icon-icon-right" viewBox="0 0 32 32">
<title>icon-right</title>
<path class="path1" d="M11.688 27.25l-1.875-1.563 11.375-9.688-11.375-9.688 1.875-1.563 13.125 11.25z"></path>
</symbol>
<symbol id="icon-icon-play" viewBox="0 0 32 32">
<title>icon-play</title>
<path class="path1" d="M16 2.563q-5.563 0-9.5 3.938t-3.938 9.5 3.938 9.531 9.5 3.969 9.5-3.969 3.938-9.531-3.938-9.5-9.5-3.938zM19.563 16.375l-5.563 4.688v-9.438z"></path>
</symbol>
<symbol id="icon-icon-expand-media" viewBox="0 0 32 32">
<title>icon-expand-media</title>
<path class="path1" d="M29.375 30h-26.75q-0.688 0-0.688-0.688v-26.75q0-0.75 0.688-0.75h26.75q0.688 0 0.688 0.75v26.75q0 0.688-0.688 0.688zM3.313 28.625h25.375v-25.375h-25.375v25.375zM23.063 13.438q-0.688 0-0.688-0.688v-3.188h-3.188q-0.688 0-0.688-0.688 0-0.75 0.688-0.75h3.875q0.688 0 0.688 0.75v3.875q0 0.688-0.688 0.688zM8.938 13.438q-0.688 0-0.688-0.688v-3.875q0-0.75 0.688-0.75h3.875q0.688 0 0.688 0.75 0 0.688-0.688 0.688h-3.188v3.188q0 0.688-0.688 0.688zM12.813 23.688h-3.875q-0.688 0-0.688-0.688v-3.875q0-0.688 0.688-0.688t0.688 0.688v3.188h3.188q0.688 0 0.688 0.688t-0.688 0.688zM23.063 23.688h-3.875q-0.688 0-0.688-0.688t0.688-0.688h3.188v-3.188q0-0.688 0.688-0.688t0.688 0.688v3.875q0 0.688-0.688 0.688z"></path>
</symbol>
<symbol id="icon-icon-close" viewBox="0 0 32 32">
<title>icon-close</title>
<path class="path1" d="M17.063 16l13.5-13.5q0.563-0.563 0-1.063-0.5-0.563-1.063 0l-13.5 13.5-13.5-13.5q-0.563-0.563-1.063 0-0.563 0.5 0 1.063l13.5 13.5-13.5 13.5q-0.5 0.563 0 1.063 0.25 0.25 0.563 0.25t0.5-0.25l13.5-13.5 13.5 13.5q0.188 0.25 0.5 0.25t0.563-0.25q0.5-0.5 0-1.063z"></path>
</symbol>
<symbol id="icon-icon-pin" viewBox="0 0 32 32">
<title>icon-pin</title>
<path class="path1" d="M24.188 10.188q0 2-2.031 6.969t-4.094 8.906l-2.063 3.938q-0.938-1.688-2.281-4.344t-3.625-8.063-2.281-7.406q0-3.375 2.406-5.781t5.781-2.406 5.781 2.406 2.406 5.781z"></path>
</symbol>
<symbol id="icon-icon-view-01" viewBox="0 0 32 32">
<title>icon-view-01</title>
<path class="path1" d="M5.938 7.563q0 0.813-0.563 1.375t-1.375 0.563-1.375-0.563-0.563-1.375 0.563-1.406 1.375-0.594 1.375 0.594 0.563 1.406zM5.938 16q0 0.813-0.563 1.375t-1.375 0.563-1.375-0.563-0.563-1.375 0.563-1.375 1.375-0.563 1.375 0.563 0.563 1.375zM5.938 24.438q0 0.813-0.563 1.406t-1.375 0.594-1.375-0.594-0.563-1.406 0.563-1.375 1.375-0.563 1.375 0.563 0.563 1.375zM30.438 7.563q0 0.5-0.375 0.875t-0.875 0.375h-18.063q-0.5 0-0.875-0.375t-0.375-0.875 0.375-0.875 0.875-0.375h18.063q0.5 0 0.875 0.375t0.375 0.875zM30.438 16q0 0.5-0.375 0.875t-0.875 0.375h-18.063q-0.5 0-0.875-0.375t-0.375-0.875 0.375-0.875 0.875-0.375h18.063q0.5 0 0.875 0.375t0.375 0.875zM30.438 24.313q0 0.5-0.375 0.875t-0.875 0.375h-18.063q-0.5 0-0.875-0.375t-0.375-0.875q0-0.563 0.375-0.906t0.875-0.344h18.063q0.5-0.063 0.875 0.313t0.375 0.938z"></path>
</symbol>
<symbol id="icon-icon-view-02" viewBox="0 0 32 32">
<title>icon-view-02</title>
<path class="path1" d="M1.688 1.688h10.75v10.75h-10.75v-10.75zM1.688 19.563h10.75v10.75h-10.75v-10.75zM19.563 1.688h10.75v10.75h-10.75v-10.75zM19.563 19.563h10.75v10.75h-10.75v-10.75z"></path>
</symbol>
<symbol id="icon-icon-close-02" viewBox="0 0 32 32">
<title>icon-close-02</title>
<path class="path1" d="M30.438 5.188l-3.625-3.625-10.813 10.875-10.813-10.875-3.625 3.625 10.875 10.813-10.875 10.813 3.625 3.625 10.813-10.875 10.813 10.875 3.625-3.625-10.875-10.813z"></path>
</symbol>
<symbol id="icon-icon-radio-off" viewBox="0 0 32 32">
<title>icon-radio-off</title>
<path class="path1" d="M16 1.813q-5.813 0-9.969 4.156t-4.156 10.031 4.156 10.031 9.969 4.156q5.875 0 10.031-4.156t4.156-10.031-4.156-10.031-10.031-4.156zM16 26.625q-4.375 0-7.5-3.125t-3.125-7.5 3.125-7.5 7.5-3.125 7.5 3.125 3.125 7.5-3.125 7.5-7.5 3.125z"></path>
</symbol>
<symbol id="icon-icon-radio-on" viewBox="0 0 32 32">
<title>icon-radio-on</title>
<path class="path1" d="M16 1.813q-5.813 0-9.969 4.156t-4.156 10.031 4.156 10.031 9.969 4.156q5.875 0 10.031-4.156t4.156-10.031-4.156-10.031-10.031-4.156zM16 26.625q-4.375 0-7.5-3.125t-3.125-7.5 3.125-7.5 7.5-3.125 7.5 3.125 3.125 7.5-3.125 7.5-7.5 3.125zM16 8.938q-2.875 0-4.969 2.094t-2.094 4.969q0 2.938 2.063 5t5 2.063 5.031-2.063 2.094-5-2.094-5-5.031-2.063z"></path>
</symbol>
<symbol id="icon-icon-document" viewBox="0 0 32 32">
<title>icon-document</title>
<path class="path1" d="M28.688 5.063h-3.375v-3.125q0-0.313-0.219-0.531t-0.531-0.219h-21.25q-0.313 0-0.531 0.219t-0.219 0.531v24.313q0 0.688 0.75 0.688h3.375v3.125q0 0.313 0.219 0.531t0.531 0.219h21.25q0.313 0 0.531-0.219t0.219-0.531v-24.313q0-0.688-0.75-0.688zM4.063 2.688h19.75v22.813h-19.75v-22.813zM27.938 29.313h-19.75v-2.375h16.375q0.75 0 0.75-0.688v-19.75h2.625v22.813zM21.25 14.75h-14.688q-0.75 0-0.75-0.813t0.75-0.813h14.688q0.75 0 0.75 0.813t-0.75 0.813zM21.25 10.125h-14.688q-0.75 0-0.75-0.813t0.75-0.813h14.688q0.75 0 0.75 0.813t-0.75 0.813zM21.25 19.375h-14.688q-0.75 0-0.75-0.813t0.75-0.813h14.688q0.75 0 0.75 0.813t-0.75 0.813z"></path>
</symbol>
<symbol id="icon-icon-link" viewBox="0 0 32 32">
<title>icon-link</title>
<path class="path1" d="M31.75 0.688q-0.063-0.375-0.438-0.438-0.063-0.063-0.25-0.063h-15.063q-0.813 0-0.813 0.75 0 0.813 0.813 0.813h13.125l-17.813 17.813q-0.563 0.563 0 1.125 0.313 0.188 0.563 0.188 0.375 0 0.563-0.188l17.813-17.813v13.188q0 0.813 0.813 0.813 0.75 0 0.75-0.813v-15.125q0-0.188-0.063-0.25zM23 19.313q-0.813 0-0.813 0.813 0 4.25-3.031 7.281t-7.281 3.031-7.281-3.031-3.031-7.281 3.031-7.281 7.281-3.031q0.813 0 0.813-0.813t-0.813-0.813q-4.938 0-8.406 3.5t-3.469 8.438 3.469 8.406 8.406 3.469 8.438-3.469 3.5-8.406q0-0.813-0.813-0.813z"></path>
</symbol>
<symbol id="icon-whatsapp" viewBox="0 0 32 32">
<title>whatsapp</title>
<path class="path1" d="M19.875 17.375q0.313 0 1.75 0.813 1.438 0.75 1.563 0.938 0.063 0.063 0.063 0.25 0 0.563-0.313 1.375-0.313 0.688-1.25 1.188-0.938 0.438-1.813 0.438-0.938 0-3.438-1.063-1.75-0.875-3-2.125t-2.625-3.313q-1.313-1.875-1.313-3.438v-0.188q0.125-1.625 1.313-2.813 0.438-0.375 0.938-0.375h0.313q0.188 0.063 0.375 0.063 0.375 0 0.438 0.125 0.125 0.063 0.313 0.438 0 0.125 0.219 0.656t0.344 0.969q0.438 1.125 0.438 1.313 0 0.375-0.563 1-0.625 0.625-0.625 0.875 0 0.125 0.063 0.25 0.688 1.438 1.813 2.438 1.125 1.063 2.688 1.813 0.375 0.125 0.438 0.125 0.25 0 0.938-0.875 0.75-0.875 0.938-0.875zM16.25 26.875q2.25 0 4.375-0.938 2-0.813 3.563-2.375t2.375-3.563q0.875-1.938 0.875-4.375 0-2.375-0.875-4.313-0.875-2.125-2.375-3.625-1.375-1.375-3.563-2.375-2.25-0.875-4.375-0.875t-4.375 0.875q-2.188 1-3.563 2.375-1.5 1.5-2.375 3.625-0.875 1.938-0.875 4.313 0 3.688 2.125 6.563l-1.438 4.188 4.313-1.375q2.938 1.875 6.188 1.875zM16.25 2.188q2.625 0 5.25 1.063 2.375 1 4.25 2.875 1.813 1.75 2.875 4.313 1.063 2.313 1.063 5.188t-1.063 5.25q-1.063 2.5-2.875 4.313-1.688 1.688-4.25 2.875-2.625 1.063-5.25 1.063-3.5 0-6.5-1.688l-7.438 2.375 2.375-7.25q-1.875-3.063-1.875-6.938 0-2.875 1.063-5.188 1.063-2.563 2.875-4.313 1.875-1.875 4.25-2.875 2.625-1.063 5.25-1.063z"></path>
</symbol>
<symbol id="icon-icon-pdf2" viewBox="0 0 32 32">
<title>icon-pdf2</title>
<path class="path1" d="M28.688 5.063h-3.375v-3.125q0-0.313-0.219-0.531t-0.531-0.219h-21.25q-0.313 0-0.531 0.219t-0.219 0.531v24.313q0 0.688 0.75 0.688h3.375v3.125q0 0.313 0.219 0.531t0.531 0.219h21.25q0.313 0 0.531-0.219t0.219-0.531v-24.313q0-0.688-0.75-0.688zM4.063 2.688h19.75v22.813h-19.75v-22.813zM27.938 29.313h-19.75v-2.375h16.375q0.75 0 0.75-0.688v-19.75h2.625v22.813z"></path>
</symbol>
<symbol id="icon-angle-double-left" viewBox="0 0 32 32">
<title>angle-double-left</title>
<path class="path1" d="M18.063 24.563q0 0.25-0.188 0.438l-0.875 0.875q-0.188 0.188-0.438 0.188-0.313 0-0.375-0.188l-8.375-8.313q-0.125-0.25-0.125-0.438 0-0.125 0.125-0.375l8.375-8.313q0.063-0.188 0.375-0.188 0.25 0 0.438 0.188l0.875 0.875q0.188 0.188 0.188 0.375 0 0.25-0.188 0.438l-7 7 7 7.063q0.188 0.063 0.188 0.375zM24.938 24.563q0 0.25-0.188 0.438l-0.938 0.875q-0.063 0.188-0.375 0.188-0.25 0-0.438-0.188l-8.313-8.313q-0.188-0.188-0.188-0.438 0-0.188 0.188-0.375l8.313-8.313q0.188-0.188 0.438-0.188 0.313 0 0.375 0.188l0.938 0.875q0.188 0.188 0.188 0.375 0 0.25-0.188 0.438l-7.063 7 7.063 7.063q0.188 0.063 0.188 0.375z"></path>
</symbol>
<symbol id="icon-angle-double-right" viewBox="0 0 32 32">
<title>angle-double-right</title>
<path class="path1" d="M17.5 17.125q0 0.25-0.188 0.438l-8.313 8.313q-0.188 0.188-0.438 0.188-0.313 0-0.375-0.188l-0.938-0.875q-0.188-0.188-0.188-0.438 0-0.313 0.188-0.375l7.063-7.063-7.063-7q-0.188-0.188-0.188-0.438 0-0.188 0.188-0.375l0.938-0.875q0.063-0.188 0.375-0.188 0.25 0 0.438 0.188l8.313 8.313q0.188 0.188 0.188 0.375zM24.313 17.125q0 0.188-0.125 0.438l-8.375 8.313q-0.063 0.188-0.375 0.188-0.25 0-0.438-0.188l-0.875-0.875q-0.188-0.188-0.188-0.438 0-0.313 0.188-0.375l7-7.063-7-7q-0.188-0.188-0.188-0.438 0-0.188 0.188-0.375l0.875-0.875q0.188-0.188 0.438-0.188 0.313 0 0.375 0.188l8.375 8.313q0.125 0.25 0.125 0.375z"></path>
</symbol>
</defs>
</svg>
