<!-- Generated by IcoMoon.io -->
<svg version="1.1" xmlns="http://www.w3.org/2000/svg" width="32" height="32" viewBox="0 0 32 32">
<path d="M27.68 0h-23.36c-2.4 0-4.32 1.92-4.32 4.32v23.2c0 2.56 1.92 4.48 4.32 4.48h23.2c2.4 0 4.32-1.92 4.32-4.32v-23.36c0.16-2.4-1.76-4.32-4.16-4.32zM9.92 26.88h-4.8v-14.88h4.8v14.88zM7.52 9.92c-1.28 0-2.4-1.12-2.4-2.4s1.12-2.4 2.4-2.4c1.28 0 2.4 1.12 2.4 2.4s-1.12 2.4-2.4 2.4zM26.88 26.72h-4.8v-7.84c0-1.6-1.12-2.88-2.72-2.88-1.76 0-2.4 1.28-2.4 2.56 0 1.6 0 8.32 0 8.32h-4.8v-14.72h4.8v2.24c0.64-0.96 2.56-2.24 4.48-2.24 2.4 0 2.88 0.48 3.84 1.44 1.92 1.76 1.76 4.48 1.76 5.12v0 8z"></path>
</svg>
